<?xml version="1.0" encoding="utf-8"?>
<!-- Generator: Adobe Illustrator 27.1.1, SVG Export Plug-In . SVG Version: 6.00 Build 0)  -->
<svg version="1.1" id="Capa_3" xmlns="http://www.w3.org/2000/svg" xmlns:xlink="http://www.w3.org/1999/xlink" x="0px" y="0px"
	 viewBox="0 0 800 458" style="enable-background:new 0 0 800 458;" xml:space="preserve">
<style type="text/css">
	.st0{fill:#E8AF86;}
	.st1{fill:#F7F7F7;}
	.st2{fill:#FA3369;}
	.st3{fill:#F7BF5C;}
	.st4{fill:none;}
	.st5{fill:#6F2D6B;}
	.st6{fill:#A72468;}
	.st7{fill:#DD9666;}
	.st8{fill:#272B36;}
	.st9{opacity:0.15;fill:#FFFFFF;}
	.st10{fill:#FFFFFF;}
	.st11{opacity:0.15;}
	.st12{fill:none;stroke:#272B36;stroke-miterlimit:10;}
	.st13{fill:#E8AF86;stroke:#272B36;stroke-miterlimit:10;}
	.st14{fill:none;stroke:#272B36;stroke-width:1.071;stroke-miterlimit:10;}
	.st15{fill:#E6975E;}
</style>
<path class="st0" d="M230.84,225.78c-1.56,7.71-4.39,15.51-10.12,20.91c-2.66,2.51-5.81,4.35-9.21,5.62
	c0.64,4.83,1.55,9.63,2.74,14.36c-7.93-1.66-16.51-0.94-24.64,0.28c-8.32,1.25-16.78,2.95-25.12,2.89
	c-0.48-2.88-1.08-5.74-1.79-8.56c-2.59-10.41-6.65-20.45-12.05-29.71c-1.53,0.68-3.27,0.92-4.89,0.53c-4.22-1-7.15-5.27-7.47-9.59
	c-0.16-2.08,0.37-4.19,1.53-5.88c-4.02-5.47-7.82-11.11-10.94-17.09c-1.3-2.47-2.48-5-3.51-7.61c-1.25-3.15-2.28-6.42-3.02-9.75
	c3.88-8.46,10.2-15.79,18.05-20.8c2.06-1.31,4.21-2.47,6.4-3.56c3.16-1.58,6.4-3.01,9.72-4.21c3.49-1.26,7.07-2.25,10.73-2.84
	c5.56-0.9,11.29-0.89,16.73-2.36c4.73-1.27,9.41-3.98,11.79-8.15c4.14,1.92,7.82,4.92,11.11,8.12c0.21,0.21,0.43,0.42,0.64,0.63v0
	C227.28,168.65,236.37,198.46,230.84,225.78z"/>
<path class="st0" d="M482.77,316.76c-2.2,1.88-5.19,2.48-8.06,2.86c-6.63,0.88-13.38,0.9-20.02,0.05c0.8,1.26,1.74,2.44,2.76,3.55
	c1.82,1.98,3.93,3.74,6.07,5.37c4.31,3.27,8.94,6.18,12.59,10.16c1.19,1.3,2.3,2.78,2.59,4.52c0.29,1.74-0.5,3.77-2.15,4.38
	c-1.45,0.53-3.05-0.12-4.43-0.79c0,0,0,0-0.01,0c-0.07,0.08-0.15,0.16-0.24,0.23c-0.68,0.56-1.57,0.78-2.45,0.88
	c-3.55,0.43-6.96-0.75-10.13-2.53c-0.88,0.75-2.24,1.11-3.45,1.07c-5.29-0.15-9.46-4.33-14.14-6.79c-2.86-1.51-6.05-2.4-9.28-2.62
	c-0.07,0-0.14-0.01-0.21-0.01c-1.18-5.63-4.25-10.85-8.4-14.88c-4.91-4.76-11.25-7.91-17.88-9.57c-0.58-0.15-1.16-0.28-1.74-0.39
	c0.81-2.71,1.66-5.42,3.06-7.88c1.48-2.59,3.65-4.89,6.44-5.96c2.49-0.95,5.25-0.85,7.89-0.48c4.08,0.57,8.18,1.81,11.45,4.3
	c0.43-0.24,0.88-0.46,1.33-0.66c2.37-1.03,5.04-1.49,7.62-1.41c2.05,0.07,4.07,0.41,6.05,0.92c1.85,0.47,3.68,1.09,5.49,1.75
	c1.32,0.48,2.63,0.99,3.94,1.48c1.6,0.61,3.24,1.2,4.89,1.71c1.53,0.47,3.08,0.87,4.64,1.14c1.2,0.21,2.4,0.34,3.62,0.38
	c0.84,0.02,1.67,0,2.51-0.08c1.11-0.11,2.3-0.29,3.49-0.41c2.37-0.26,4.73-0.31,6.45,0.79c0.47,0.3,0.89,0.69,1.25,1.18
	c0.51,0.69,0.77,1.48,0.84,2.3C485.3,313.29,484.32,315.44,482.77,316.76z"/>
<g>
	<path class="st1" d="M552.73,361.41H507c-5.53,0-10.57,4.43-11.25,9.89l-3.1,24.59l-1.01,8.01l-1.59,12.6
		c-0.69,5.46,3.24,9.89,8.76,9.89h45.73c5.53,0,10.56-4.43,11.25-9.89l1.59-12.6l1.01-8.01l3.1-24.59
		C562.18,365.84,558.26,361.41,552.73,361.41z"/>
</g>
<path class="st2" d="M278.1,458H135.14c-7.01-26.05-13.22-52.37-21.46-78.06c-3.43-10.7-7.24-21.42-8.07-32.62
	c-0.83-11.2,1.72-23.19,9.5-31.3c4.75-4.94,10.74-7.88,17.3-9.6c9.03-2.37,19.13-2.44,28.56-2.24c12.66,0.27,25.33,0.54,37.99,0.81
	c12.52,0.27,25.63,0.69,36.49,6.92c8.54,4.9,14.87,13.04,19.15,21.91c4.28,8.87,6.67,18.51,8.83,28.12
	C270.55,393.58,275.45,425.7,278.1,458z"/>
<path class="st3" d="M207.52,149.01c-0.21-0.21-0.43-0.42-0.64-0.63c-3.3-3.21-6.98-6.2-11.11-8.12c-2.38,4.17-7.06,6.88-11.79,8.15
	c-5.44,1.47-11.16,1.46-16.73,2.36c-3.66,0.59-7.24,1.58-10.73,2.84c-3.32,1.19-6.56,2.63-9.72,4.21c-2.18,1.09-4.34,2.24-6.4,3.56
	c-7.85,5-14.17,12.34-18.05,20.8c-1.98-8.92-1.9-18.26,1.34-26.75c0.31-0.82,0.65-1.62,1.01-2.41
	c7.19-15.65,23.76-25.08,39.41-32.76c3.69-1.81,7.52-3.63,11.63-3.86c5.44-0.31,10.72,2.25,14.81,5.85
	c4.09,3.6,7.16,8.18,10.19,12.71C202.7,137.9,205.88,144.14,207.52,149.01z"/>
<path class="st3" d="M128.88,199.54c-0.77,2.36-2.34,4.46-4.46,5.77c0.64-3.97-0.1-8.14-2.07-11.65c0.02,2.36-1.75,4.45-3.89,5.46
	c-2.13,1-4.57,1.11-6.93,1.05c2.31-0.97,4.81-2.11,5.98-4.33c1.1-2.08,0.77-4.61,0.28-6.91c-0.64-3.06-1.56-6.18-3.6-8.54
	c-1.62-1.87-3.83-3.13-5.51-4.94c-2.3-2.48-3.45-5.99-3.08-9.35c0.3-2.77,1.71-5.51,4.09-6.96c0.5-0.31,1.05-0.54,1.62-0.7
	c0.71-2.48,2.3-4.72,4.55-5.98c2.73-1.53,6.41-1.38,8.84,0.58c-0.36,0.79-0.7,1.59-1.01,2.41c-3.24,8.48-3.32,17.82-1.34,26.75
	c0.74,3.33,1.76,6.61,3.02,9.75C126.41,194.53,127.58,197.06,128.88,199.54z"/>
<path class="st2" d="M569.65,258.76c0.38-2.99,3.06-5.41,5.98-5.41h56.27l3.34-23.61H392.63l1.19,4.91l-4.47,2.77
	c-0.08,1.35-0.31,2.7-0.68,4.01l3.49,2.96l-4.41,7.47l-4.72-0.89c-1.01,1.01-2.12,1.95-3.33,2.77l-0.03,4.85l-6.98,2.54l-0.75,5.34
	l-0.12,0.86c0.53-0.02,1.04,0.01,1.54,0.08l1.87-2.07l3.71,1.74l-0.85,2.55c0.47,0.45,0.89,0.97,1.25,1.54l2.63-0.36l0.98,4.03
	l-2.36,1.46c-0.04,0.72-0.17,1.43-0.36,2.12l1.85,1.56l-2.33,3.95l-2.49-0.47c-0.53,0.53-1.12,1.03-1.76,1.47l-0.01,2.56l-4.28,1.56
	l-1.16-2.14c-0.34,0.03-0.67,0.04-1.01,0.03l-8.65,61.15c2.62-2.12,5.14-4.38,7.65-6.62c3.25-2.9,10.12-8.23,15.7-12.7
	c-1.06-2.81,0.88-6.48,3.9-6.99c1-0.17,2.08-0.05,2.95-0.56c1.23-0.71,1.55-2.3,2.06-3.63c1.05-2.69,3.5-4.8,6.32-5.43
	c1.7-0.38,3.47-0.26,5.19,0.07c0.81-2.71,1.66-5.42,3.06-7.88c1.48-2.59,3.65-4.89,6.44-5.96c2.49-0.95,5.25-0.85,7.89-0.48
	c4.08,0.57,8.18,1.81,11.45,4.3c0.43-0.24,0.88-0.46,1.33-0.66l2.96-18.75c0.91-5.78,6.36-10.47,12.16-10.47h74.61
	c5.81,0,9.77,4.69,8.86,10.47l-4.72,29.93c-0.91,5.78-6.36,10.47-12.16,10.47h-58.61c1.82,1.98,3.93,3.74,6.07,5.37
	c4.31,3.27,8.94,6.18,12.59,10.16c1.19,1.3,2.3,2.78,2.59,4.52c0.29,1.74-0.5,3.77-2.15,4.38c-1.45,0.53-3.05-0.12-4.43-0.79
	c0,0,0,0-0.01,0c-0.07,0.08-0.15,0.16-0.24,0.23c-0.68,0.56-1.57,0.78-2.45,0.88c-3.55,0.43-6.96-0.75-10.13-2.53
	c-0.88,0.75-2.24,1.11-3.45,1.07c-5.29-0.15-9.46-4.33-14.14-6.79c-2.86-1.51-6.05-2.4-9.28-2.62c-0.07,0-0.14-0.01-0.21-0.01
	c0.22,1.03,0.37,2.08,0.46,3.14c0.26,3.16-0.47,6.94-3.34,8.29c-1,0.47-2.14,0.58-3.09,1.12c-2.33,1.34-2.56,4.53-3.67,6.98
	c-1.66,3.64-6.01,5.68-9.9,5.07c-8.97,10.96-18.67,22.95-27.84,34.19h107.82l3.1-24.59c0.69-5.46,5.73-9.89,11.25-9.89h45.73
	c5.53,0,9.45,4.43,8.76,9.89l-3.1,24.59h53.34l7.62-53.87h-55.1c-2.92,0-4.98-2.42-4.59-5.41L569.65,258.76z M418.69,268.43
	l-3.6,0.21c-0.56,0.86-1.2,1.69-1.94,2.46l0.84,3.31l-5.38,3.4l-2.32-2.37c-0.99,0.32-1.97,0.52-2.96,0.63l-1.89,3.27l-5.72-1.03
	l0.32-3.56c-0.81-0.43-1.57-0.95-2.25-1.56l-3.52,1.31l-2.7-4.86l2.77-2.65c-0.18-0.94-0.25-1.89-0.22-2.85l-3.08-1.41l1.89-5.85
	l3.6-0.2c0.56-0.87,1.2-1.7,1.94-2.46l-0.84-3.31l5.38-3.4l2.33,2.37c0.98-0.32,1.97-0.53,2.95-0.63l1.89-3.27l5.72,1.03l-0.31,3.56
	c0.81,0.42,1.56,0.95,2.24,1.57l3.52-1.31l2.71,4.86l-2.77,2.66c0.18,0.93,0.25,1.89,0.22,2.85l3.08,1.41L418.69,268.43z"/>
<g id="Capa_2">
</g>
<g id="Capa_1">
</g>
<path class="st4" d="M454.69,319.68c-1.05-0.13-2.1-0.29-3.14-0.46"/>
<path class="st4" d="M433.03,302.25c-1.99,1.11-3.67,2.67-4.75,4.71"/>
<path class="st4" d="M446.39,330.41c2.82,0.8,5.1,2.82,7.37,4.69c5.63,4.63,11.8,8.59,18.35,11.77"/>
<path class="st4" d="M439.76,334.83c5.5,0.45,10.13,4.09,14.58,7.36c1.57,1.15,3.22,2.29,4.95,3.26"/>
<path class="st4" d="M404.19,312.27c-0.05,0.15-0.09,0.31-0.14,0.46"/>
<path class="st4" d="M156.57,234.16c9.08,11.56,23.1,19.09,37.74,20.28c5.78,0.47,11.81-0.11,17.21-2.13"/>
<path class="st4" d="M164.5,269.84c-3.2-0.02-6.39-0.3-9.55-0.97"/>
<path class="st5" d="M239.26,286.06c-0.47,0.02-0.94,0.06-1.41,0.1c-10.66,0.89-20.73,5.11-31.13,7.59
	c-13.19,3.15-27.04,3.5-40.38,1.02c-5.86-1.09-12.65-3.79-13.96-9.48c-0.04-0.19-0.08-0.39-0.11-0.59
	c-0.55-3.44,1.12-7.07,0.05-10.39c-0.36-1.11-1.01-2.12-1.18-3.27c-0.44-2.94,2.34-5.36,5.05-6.57c2.21-0.99,4.69-1.7,6.51-3.2
	c0.71,2.83,1.3,5.69,1.79,8.56c8.34,0.06,16.8-1.64,25.12-2.89c8.12-1.22,16.71-1.94,24.64-0.28c3.31,0.7,6.5,1.8,9.5,3.46
	C230.34,273.76,235.21,279.62,239.26,286.06z"/>
<path class="st4" d="M344.93,363.32c-2.32-1.16-4.57-2.47-6.74-3.91"/>
<path class="st6" d="M416.98,356.45c-1.41,1.72-2.86,3.48-4.31,5.26c-8.97,10.96-18.67,22.95-27.84,34.19
	c-2.22,2.72-4.41,5.4-6.55,8.01c-1.58,1.93-3.14,3.82-4.67,5.67c-2.54,3.08-5.16,6.23-8.61,8.24c-6.7,3.92-15.11,2.86-22.67,1.09
	c-11.35-2.65-22.38-6.63-32.83-11.8c1.21,5.61,2.42,11.23,3.62,16.84c1.5,7,3.02,14.02,5.39,20.74c1.62,4.6,3.63,9.01,5.86,13.31
	H278.1c-2.65-32.3-7.55-64.42-14.66-96.04c-2.16-9.61-4.55-19.25-8.83-28.12c-4.28-8.87-10.61-17-19.15-21.91
	c-10.86-6.23-23.97-6.66-36.49-6.92c-12.66-0.27-25.33-0.54-37.99-0.81c-9.42-0.2-19.53-0.13-28.56,2.24
	c4.31-8.85,11.37-16.36,19.97-21.14c1.31,5.69,8.1,8.39,13.96,9.48c13.33,2.48,27.19,2.13,40.38-1.02
	c10.41-2.48,20.48-6.7,31.13-7.59c0.47-0.04,0.94-0.07,1.41-0.1c15.62-0.87,31.06,5.51,43.6,14.93
	c12.91,9.7,23.16,22.46,32.94,35.32c4.02,5.28,8,10.63,12.73,15.28c2.96,2.91,6.2,5.53,9.66,7.83c0,0,0,0,0,0
	c4.18-0.69,8.26-2.23,11.99-4.26c0.13-0.07,0.27-0.15,0.4-0.22c3.49-1.94,6.72-4.29,9.82-6.82c2.62-2.12,5.14-4.38,7.65-6.62
	c3.25-2.9,10.12-8.23,15.7-12.7c1.79-1.44,3.45-2.78,4.82-3.93C394.74,326.94,413.04,334.79,416.98,356.45z"/>
<path class="st4" d="M309.5,407.11c-10.08-4.98-19.61-11.07-28.37-18.12"/>
<path class="st4" d="M155.08,225.59c-0.07,2.66-1.98,4.89-4.42,5.97"/>
<path class="st4" d="M195.37,132.14c1.96,1.14,2.07,3.99,1.31,6.13c-0.25,0.7-0.55,1.36-0.91,1.99"/>
<path class="st4" d="M111.32,158.43c2.12-0.61,4.55-0.21,6.11,1.34"/>
<path class="st7" d="M154.26,211.8c-0.71,2.48-0.93,5.27,0.32,7.52c-0.3-0.45-6.54-9.7-13.16-4.42c-0.62,0.5-1.15,1.08-1.59,1.73
	c-4.02-5.47-7.82-11.11-10.94-17.09c-1.3-2.47-2.48-5-3.51-7.61c-1.25-3.15-2.28-6.42-3.02-9.75c3.88-8.46,10.2-15.79,18.05-20.8
	c2.06-1.31,4.21-2.47,6.4-3.56c3.16-1.58,6.4-3.01,9.72-4.21c-5.02,5.22-7.16,14.54-6.61,20.68c0.47,5.19,2.7,10.03,4.54,14.9
	c1.84,4.88,3.32,10.16,2.22,15.25C156.13,206.97,154.97,209.32,154.26,211.8z"/>
<path class="st5" d="M492.65,395.9l-1.01,8.01H378.28c2.14-2.61,4.33-5.29,6.55-8.01H492.65z"/>
<polygon class="st5" points="628.93,342.02 620.18,403.9 557.39,403.9 558.39,395.9 611.73,395.9 619.36,342.02 "/>
<path class="st5" d="M648.1,206.51l-6.63,46.83h-9.57l3.34-23.61l2.22-15.7h-55.9c2.6-1.9,4.69-4.52,5.9-7.52H648.1z"/>
<path class="st5" d="M426.13,214.04h-46.76l-0.41,2.91v0l-3.29,3.63c-1.3-0.18-2.64-0.21-4.02-0.09l-1.63-3l1.55-10.98h50.45
	C422.52,209.52,423.98,212.13,426.13,214.04z"/>
<path class="st5" d="M377.34,228.42l-0.19,1.32l-2.8,19.79c-1.73,0.81-3.62,1.27-5.55,1.27c-1.22,0-2.36-0.18-3.41-0.52l3.19-22.53
	c1.19-0.36,2.42-0.56,3.68-0.56C374.14,227.19,375.86,227.63,377.34,228.42z"/>
<path class="st5" d="M372.71,261.14l-0.75,5.34l-0.12,0.86c-0.19,0-0.39,0.01-0.58,0.03l-1.16-2.14l-4.27,1.56l-0.02,2.56
	c-0.64,0.44-1.22,0.93-1.76,1.47l-1.52-0.29l1.68-11.82l1.19-1.31c1.3,0.17,2.64,0.21,4.02,0.09l2.19,4.04L372.71,261.14z"/>
<path class="st5" d="M369.05,286.97l-8.65,61.15c-3.1,2.53-6.33,4.87-9.82,6.82l10.11-71.48l0.02-0.17l1.23-0.17
	c0.36,0.57,0.78,1.08,1.25,1.53l-0.85,2.55l3.71,1.74l1.87-2.07C368.3,286.94,368.67,286.97,369.05,286.97z"/>
<path class="st5" d="M429.33,348.53c-1,0.47-2.14,0.58-3.09,1.12c-2.33,1.34-2.56,4.53-3.67,6.98c-1.66,3.64-6.01,5.68-9.9,5.07
	c1.46-1.78,2.9-3.54,4.31-5.26c-3.94-21.65-22.24-29.51-28.41-31.57c-1.37,1.14-3.03,2.49-4.82,3.93c-1.06-2.81,0.88-6.48,3.9-6.99
	c1-0.17,2.08-0.05,2.95-0.56c1.23-0.71,1.55-2.3,2.06-3.63c1.05-2.69,3.5-4.8,6.32-5.43c1.7-0.38,3.47-0.26,5.19,0.07
	c0.59,0.11,1.17,0.24,1.74,0.39c6.63,1.66,12.97,4.81,17.88,9.57c4.15,4.02,7.22,9.24,8.4,14.88c0.22,1.03,0.37,2.08,0.46,3.14
	C432.92,343.41,432.2,347.18,429.33,348.53z"/>
<path class="st1" d="M581.56,214.04c-2.81,2.07-6.23,3.3-9.79,3.3H435.13c-3.56,0-6.68-1.24-9-3.3h-46.76l-0.41,2.91l0.25-0.28
	l7.03,3.3l-1.6,4.83c0.89,0.85,1.69,1.82,2.36,2.9l4.98-0.67l0.66,2.71h242.61l2.22-15.7H581.56z M612.02,222.39h-5.43v-1.2h5.43
	V222.39z M621.5,224.61h-6.04l0.91-5.65h6.04L621.5,224.61z M629.91,223.51l-0.89,0.82l-1.59-1.73l-2.23,1.79l-0.75-0.94l2.16-1.74
	l-1.54-1.66l0.88-0.82l1.6,1.73l2.22-1.79l0.75,0.94l-2.16,1.73L629.91,223.51z"/>
<path class="st1" d="M379.24,229.74h-2.09l0.19-1.32C378.03,228.78,378.66,229.23,379.24,229.74z"/>
<path class="st2" d="M382.39,239c-0.67,4.6-3.9,8.58-8.04,10.53l2.8-19.79h2.09C381.67,231.9,382.94,235.24,382.39,239z"/>
<path class="st4" d="M417.34,358.72c-0.1-0.77-0.22-1.53-0.36-2.27"/>
<path class="st4" d="M388.57,324.88c-1.28-0.43-2.04-0.61-2.04-0.61"/>
<path class="st1" d="M692.64,253.35H575.63c-2.92,0-5.6,2.42-5.98,5.41l-9.98,77.85c-0.38,2.99,1.67,5.41,4.59,5.41h117.01
	c2.92,0,5.6-2.42,5.98-5.41l9.98-77.85C697.61,255.77,695.56,253.35,692.64,253.35z M608.56,322.23l-30.38-18.22l1.36-10.6
	l35.27-19.9l-1.67,13.02L590.3,298.8l19.93,10.41L608.56,322.23z M636,292.07l-11.43,38.52h-11.45l14.77-48.86v-0.01l5.12-16.95
	h11.09L636,292.07L636,292.07z M677.31,302.33l-35.26,19.9l1.67-13.02l22.84-12.27l-19.93-10.41l1.67-13.02l30.38,18.22
	L677.31,302.33z"/>
<polygon class="st2" points="613.14,286.53 590.3,298.8 610.23,309.21 608.56,322.23 578.18,304.01 579.54,293.41 614.8,273.51 "/>
<polygon class="st2" points="644.1,264.77 636,292.07 636,292.07 624.57,330.6 613.12,330.6 627.89,281.73 627.89,281.73 
	633.01,264.77 "/>
<polygon class="st2" points="678.67,291.73 677.31,302.33 642.05,322.23 643.71,309.21 666.55,296.94 646.62,286.53 648.29,273.51 
	"/>
<rect x="606.59" y="221.18" class="st8" width="5.43" height="1.2"/>
<path class="st8" d="M616.37,218.96l-0.91,5.65h6.04l0.91-5.65H616.37z M620.47,223.4h-3.6l0.52-3.24h3.6L620.47,223.4z"/>
<polygon class="st4" points="620.99,220.16 620.47,223.4 616.87,223.4 617.4,220.16 "/>
<g>
	<polygon class="st8" points="628.37,221.85 629.91,223.51 629.02,224.33 627.43,222.6 625.2,224.39 624.45,223.45 626.61,221.72 
		625.07,220.05 625.96,219.24 627.55,220.96 629.78,219.18 630.53,220.12 	"/>
</g>
<path class="st3" d="M389.35,237.42l4.47-2.77l-1.19-4.91l-0.66-2.71l-4.98,0.67c-0.67-1.08-1.47-2.05-2.36-2.9l1.6-4.83l-7.03-3.3
	l-0.25,0.28v0l-3.29,3.63c-1.3-0.18-2.64-0.21-4.02-0.09l-1.63-3l-0.57-1.05l-8.09,2.94l-0.04,4.86c-1.21,0.82-2.32,1.76-3.33,2.78
	l-4.72-0.9l-4.41,7.48l3.49,2.95c-0.37,1.33-0.6,2.67-0.68,4.02l-4.46,2.77l1.84,7.62l4.98-0.67c0.67,1.08,1.47,2.04,2.37,2.9
	l-1.61,4.82l7.03,3.3l2.36-2.6l1.19-1.31c1.3,0.17,2.64,0.21,4.02,0.09l2.19,4.04l1.11-0.41l6.98-2.54l0.03-4.85
	c1.21-0.83,2.32-1.76,3.33-2.77l4.72,0.89l4.41-7.47l-3.49-2.96C389.04,240.12,389.27,238.77,389.35,237.42z M382.39,239
	c-0.67,4.6-3.9,8.58-8.04,10.53c-1.73,0.81-3.62,1.27-5.55,1.27c-1.22,0-2.36-0.18-3.41-0.52c-4.63-1.48-7.51-5.97-6.73-11.28
	c0.77-5.27,4.9-9.74,9.92-11.25c1.19-0.36,2.42-0.56,3.68-0.56c1.89,0,3.62,0.44,5.09,1.22c0.69,0.37,1.33,0.81,1.9,1.32
	C381.67,231.9,382.94,235.24,382.39,239z"/>
<path class="st3" d="M417.5,261.18c0.03-0.96-0.04-1.91-0.22-2.85l2.77-2.66l-2.71-4.86l-3.52,1.31c-0.68-0.62-1.44-1.14-2.24-1.57
	l0.31-3.56l-5.72-1.03l-1.89,3.27c-0.98,0.1-1.97,0.31-2.95,0.63L399,247.5l-5.38,3.4l0.84,3.31c-0.73,0.77-1.38,1.59-1.94,2.46
	l-3.6,0.2l-1.89,5.85l3.08,1.41c-0.03,0.97,0.04,1.92,0.22,2.85l-2.77,2.65l2.7,4.86l3.52-1.31c0.68,0.62,1.44,1.14,2.25,1.56
	l-0.32,3.56l5.72,1.03l1.89-3.27c0.98-0.11,1.97-0.31,2.96-0.63l2.32,2.37l5.38-3.4l-0.84-3.31c0.73-0.77,1.38-1.59,1.94-2.46
	l3.6-0.21l1.89-5.84L417.5,261.18z M404.65,270.97c-4.79,1.13-9.05-1.68-9.52-6.27c-0.46-4.6,3.04-9.24,7.83-10.37
	c4.79-1.13,9.05,1.68,9.52,6.28C412.94,265.2,409.44,269.84,404.65,270.97z"/>
<path class="st2" d="M404.65,270.97c-4.79,1.13-9.05-1.68-9.52-6.27c-0.46-4.6,3.04-9.24,7.83-10.37c4.79-1.13,9.05,1.68,9.52,6.28
	C412.94,265.2,409.44,269.84,404.65,270.97z"/>
<path class="st3" d="M380.6,276.33l2.36-1.46l-0.98-4.03l-2.63,0.36c-0.35-0.57-0.77-1.08-1.25-1.54l0.85-2.55l-3.71-1.74
	l-1.87,2.07c-0.5-0.07-1.02-0.1-1.54-0.08c-0.19,0-0.39,0.01-0.58,0.03l-1.16-2.14l-4.27,1.56l-0.02,2.56
	c-0.64,0.44-1.22,0.93-1.76,1.47l-1.52-0.29l-0.97-0.18l-2.33,3.95l1.85,1.56c-0.19,0.7-0.32,1.41-0.36,2.12l-2.36,1.46l0.97,4.03
	l1.4-0.19l1.23-0.17c0.36,0.57,0.78,1.08,1.25,1.53l-0.85,2.55l3.71,1.74l1.87-2.07c0.37,0.05,0.74,0.08,1.12,0.08
	c0.33,0.01,0.67-0.01,1.01-0.03l1.16,2.14l4.28-1.56l0.01-2.56c0.64-0.44,1.22-0.93,1.76-1.47l2.49,0.47l2.33-3.95l-1.85-1.56
	C380.44,277.75,380.56,277.04,380.6,276.33z M376.93,277.16c-0.5,3.45-3.72,6.24-7.19,6.24c-0.06,0-0.12,0-0.18,0
	c-3.36-0.1-5.67-2.85-5.18-6.23c0.49-3.36,3.57-6.1,6.94-6.23c0.08,0,0.16-0.01,0.24-0.01
	C375.03,270.92,377.43,273.71,376.93,277.16z"/>
<path class="st2" d="M376.93,277.16c-0.5,3.45-3.72,6.24-7.19,6.24c-0.06,0-0.12,0-0.18,0l0.02-0.15l1.72-12.15l0.02-0.16
	c0.08,0,0.16-0.01,0.24-0.01C375.03,270.92,377.43,273.71,376.93,277.16z"/>
<path class="st5" d="M371.32,270.93l-0.02,0.16l-1.72,12.15l-0.02,0.15c-3.36-0.1-5.67-2.85-5.18-6.23
	C364.87,273.79,367.95,271.05,371.32,270.93z"/>
<path class="st2" d="M523.32,378.79l-2.15,17.1l-0.43,3.44c-0.23,1.78-0.62,3.3-1.19,4.57c-0.51,1.16-1.18,2.11-1.99,2.84
	c-1.68,1.52-4.16,2.28-7.42,2.28c-1.88,0-3.33-0.15-4.33-0.46l0.54-4.31c1.63,0.12,2.79,0.17,3.46,0.17c1.29,0,2.31-0.17,3.06-0.51
	c0.3-0.13,0.56-0.3,0.77-0.49c0.75-0.67,1.25-2.03,1.51-4.08l0.43-3.44l2.15-17.1H523.32z"/>
<path class="st2" d="M542.9,401.77c-0.1,0.77-0.29,1.48-0.56,2.13c-0.59,1.39-1.59,2.49-3,3.31c-2.06,1.2-4.41,1.8-7.04,1.8
	c-2.28,0-4.23-0.45-5.87-1.36c-1.51-0.84-2.45-2.09-2.82-3.75c-0.03-0.13-0.06-0.27-0.08-0.4l4.83-0.89
	c0.14,0.51,0.36,0.94,0.66,1.3c0.75,0.92,2.01,1.38,3.77,1.38c2.22,0,3.71-0.46,4.46-1.38c0.31-0.37,0.49-0.82,0.56-1.34
	c0.07-0.58-0.11-1.06-0.55-1.44c-0.44-0.38-0.98-0.63-1.63-0.76l-3.96-0.76c-3.05-0.6-4.94-1.83-5.66-3.7
	c-0.32-0.82-0.41-1.76-0.27-2.82c0.24-1.95,1.16-3.6,2.76-4.96c1.6-1.36,3.81-2.04,6.63-2.04c4.7,0,7.36,1.71,7.98,5.12l-4.59,0.89
	c-0.26-1.66-1.49-2.49-3.7-2.49c-2.68,0-4.12,0.83-4.33,2.49c-0.14,1.15,0.84,1.94,2.95,2.38l4.66,0.98
	c0.56,0.12,1.06,0.26,1.52,0.44C542.18,396.89,543.27,398.84,542.9,401.77z"/>
<path class="st1" d="M524.09,272.37h-74.61c-5.81,0-11.25,4.69-12.16,10.47l-2.96,18.75c2.37-1.03,5.04-1.49,7.62-1.41
	c2.05,0.07,4.07,0.41,6.05,0.92c0-1.06,0.1-2.16,0.28-3.31c0.67-4.21,2.21-7.64,4.64-10.29c2.42-2.64,5.39-3.96,8.91-3.96
	c2.75,0,4.92,0.84,6.48,2.53c1.57,1.69,2.34,4.11,2.32,7.25l-4.72,0.48c-0.2-4.17-1.75-6.26-4.67-6.26c-1.87,0-3.47,0.87-4.78,2.61
	c-1.31,1.74-2.23,4.25-2.75,7.55c-0.32,2.01-0.39,3.72-0.21,5.14c1.32,0.48,2.63,0.99,3.94,1.48c1.6,0.61,3.24,1.2,4.89,1.71
	c1.15-1.13,1.91-2.46,2.29-4.01l4.56,0.51c-0.46,1.74-1.2,3.28-2.21,4.64c1.2,0.21,2.4,0.34,3.62,0.38
	c-0.37-0.76-0.61-1.62-0.73-2.59l5.03-1.03c0.08,1.4,0.64,2.45,1.7,3.13c2.37-0.26,4.73-0.31,6.45,0.79
	c0.84-0.17,1.57-0.46,2.18-0.86c1.07-0.7,1.68-1.58,1.85-2.62c0.12-0.75,0.01-1.46-0.32-2.1c-0.33-0.64-1.18-1.14-2.55-1.51
	l-5.09-1.38c-1.74-0.47-3-1.01-3.78-1.61c-0.77-0.6-1.33-1.45-1.68-2.54c-0.35-1.09-0.43-2.26-0.23-3.51
	c0.39-2.47,1.63-4.45,3.71-5.95c2.08-1.49,4.56-2.24,7.44-2.24c2.39,0,4.44,0.52,6.16,1.56c1.71,1.04,2.68,2.51,2.89,4.42
	l-4.95,1.17c-0.4-2.09-1.95-3.14-4.64-3.14c-1.56,0-2.8,0.33-3.72,0.97c-0.92,0.65-1.47,1.47-1.62,2.47
	c-0.25,1.58,0.86,2.69,3.34,3.32l4.54,1.17c2.75,0.72,4.5,1.77,5.26,3.17c0.75,1.4,1,2.94,0.73,4.63c-0.43,2.71-1.79,4.85-4.1,6.41
	c-1.01,0.69-2.12,1.22-3.33,1.61c0.16,1.97-0.81,4.11-2.37,5.44c-2.2,1.88-5.19,2.48-8.06,2.86c-6.63,0.88-13.38,0.9-20.02,0.05
	c0.8,1.26,1.74,2.44,2.76,3.55h58.61c5.81,0,11.25-4.69,12.16-10.47l4.72-29.93C533.86,277.06,529.89,272.37,524.09,272.37z
	 M505.84,294.33l4.54,1.17c2.75,0.72,4.5,1.77,5.26,3.17c0.75,1.4,1,2.94,0.73,4.63c-0.43,2.71-1.79,4.85-4.1,6.41
	s-5.09,2.34-8.36,2.34c-2.75,0-5.08-0.57-6.97-1.72c-1.89-1.15-2.98-2.94-3.27-5.37l5.03-1.03c0.15,2.74,2.17,4.11,6.07,4.11
	c1.78,0,3.2-0.35,4.27-1.05c1.07-0.7,1.68-1.58,1.85-2.62c0.12-0.75,0.01-1.46-0.32-2.1c-0.34-0.64-1.19-1.14-2.55-1.51l-5.09-1.38
	c-1.74-0.47-3-1.01-3.78-1.61c-0.77-0.6-1.33-1.45-1.68-2.54c-0.35-1.09-0.43-2.26-0.23-3.51c0.39-2.47,1.63-4.45,3.71-5.95
	c2.08-1.49,4.56-2.24,7.44-2.24c2.39,0,4.44,0.52,6.16,1.56c1.71,1.04,2.68,2.51,2.89,4.42l-4.95,1.17
	c-0.4-2.09-1.95-3.14-4.63-3.14c-1.56,0-2.81,0.33-3.73,0.97c-0.92,0.65-1.47,1.47-1.62,2.47
	C502.25,292.58,503.36,293.69,505.84,294.33z"/>
<path class="st2" d="M469.19,302.53c-0.46,1.74-1.2,3.28-2.21,4.64c-1.56-0.27-3.11-0.67-4.64-1.14c1.15-1.13,1.91-2.46,2.29-4.01
	L469.19,302.53z"/>
<path class="st2" d="M470.64,293.33l-4.72,0.48c-0.2-4.17-1.75-6.26-4.67-6.26c-1.87,0-3.47,0.87-4.78,2.61
	c-1.31,1.74-2.23,4.25-2.75,7.55c-0.32,2.01-0.39,3.72-0.21,5.14c-1.81-0.66-3.64-1.28-5.49-1.75c0-1.06,0.1-2.16,0.28-3.31
	c0.67-4.21,2.21-7.64,4.64-10.29c2.42-2.64,5.39-3.96,8.91-3.96c2.75,0,4.92,0.84,6.48,2.53
	C469.89,287.77,470.66,290.19,470.64,293.33z"/>
<path class="st2" d="M476.59,307.06c-1.19,0.12-2.38,0.3-3.49,0.41c-0.84,0.08-1.68,0.1-2.51,0.08c-0.37-0.76-0.61-1.62-0.73-2.59
	l5.03-1.03C474.97,305.33,475.54,306.38,476.59,307.06z"/>
<path class="st2" d="M491.82,298.67c0.75,1.4,1,2.94,0.73,4.63c-0.43,2.71-1.79,4.85-4.1,6.41c-1.01,0.69-2.12,1.22-3.33,1.61
	c-0.07-0.82-0.33-1.61-0.84-2.3c-0.36-0.49-0.78-0.88-1.25-1.18c0.84-0.17,1.57-0.46,2.18-0.86c1.07-0.7,1.68-1.58,1.85-2.62
	c0.12-0.75,0.01-1.46-0.32-2.1c-0.33-0.64-1.18-1.14-2.55-1.51l-5.09-1.38c-1.74-0.47-3-1.01-3.78-1.61
	c-0.77-0.6-1.33-1.45-1.68-2.54c-0.35-1.09-0.43-2.26-0.23-3.51c0.39-2.47,1.63-4.45,3.71-5.95c2.08-1.49,4.56-2.24,7.44-2.24
	c2.39,0,4.44,0.52,6.16,1.56c1.71,1.04,2.68,2.51,2.89,4.42l-4.95,1.17c-0.4-2.09-1.95-3.14-4.64-3.14c-1.56,0-2.8,0.33-3.72,0.97
	c-0.92,0.65-1.47,1.47-1.62,2.47c-0.25,1.58,0.86,2.69,3.34,3.32l4.54,1.17C489.31,296.22,491.07,297.27,491.82,298.67z"/>
<path class="st2" d="M515.64,298.67c0.75,1.4,1,2.94,0.73,4.63c-0.43,2.71-1.79,4.85-4.1,6.41s-5.09,2.34-8.36,2.34
	c-2.75,0-5.08-0.57-6.97-1.72c-1.89-1.15-2.98-2.94-3.27-5.37l5.03-1.03c0.15,2.74,2.17,4.11,6.07,4.11c1.78,0,3.2-0.35,4.27-1.05
	c1.07-0.7,1.68-1.58,1.85-2.62c0.12-0.75,0.01-1.46-0.32-2.1c-0.34-0.64-1.19-1.14-2.55-1.51l-5.09-1.38
	c-1.74-0.47-3-1.01-3.78-1.61c-0.77-0.6-1.33-1.45-1.68-2.54c-0.35-1.09-0.43-2.26-0.23-3.51c0.39-2.47,1.63-4.45,3.71-5.95
	c2.08-1.49,4.56-2.24,7.44-2.24c2.39,0,4.44,0.52,6.16,1.56c1.71,1.04,2.68,2.51,2.89,4.42l-4.95,1.17
	c-0.4-2.09-1.95-3.14-4.63-3.14c-1.56,0-2.81,0.33-3.73,0.97c-0.92,0.65-1.47,1.47-1.62,2.47c-0.25,1.58,0.86,2.69,3.34,3.32
	l4.54,1.17C513.13,296.22,514.88,297.27,515.64,298.67z"/>
<path class="st1" d="M580.27,145.93H443.63c-8.26,0-15.75,6.66-16.73,14.88l-4.96,41.65c-0.17,1.41-0.13,2.77,0.08,4.06
	c0.5,3,1.96,5.62,4.11,7.52c2.32,2.07,5.44,3.3,9,3.3h136.64c3.56,0,6.97-1.23,9.79-3.3c2.6-1.9,4.69-4.52,5.9-7.52
	c0.52-1.29,0.88-2.65,1.05-4.06l4.96-41.65C594.44,152.59,588.53,145.93,580.27,145.93z M465.43,201.3h-7.13l2.03-17.08h-15.09
	l-2.03,17.08h-7.13l4.68-39.33h7.13l-1.92,16.16h15.09l1.93-16.16h7.12L465.43,201.3z M491.89,168.05l-3.96,33.25h-7.65l3.96-33.25
	h-10.52l0.73-6.08h28.68l-0.73,6.08H491.89z M541.58,201.3h-7.27l4.1-34.43l-15.05,34.43h-3.74l-6.91-34.43l-4.1,34.43h-5.82
	l4.68-39.33h11.15l5.27,25.33l11.15-25.33h11.21L541.58,201.3z M574.64,201.3H550.3l4.68-39.33h7.5l-3.92,32.9h16.83L574.64,201.3z"
	/>
<polygon class="st2" points="470.11,161.97 465.43,201.3 458.3,201.3 460.34,184.21 445.24,184.21 443.21,201.3 436.08,201.3 
	440.76,161.97 447.89,161.97 445.97,178.13 461.06,178.13 462.98,161.97 "/>
<polygon class="st2" points="503.13,161.97 502.41,168.05 491.89,168.05 487.94,201.3 480.29,201.3 484.25,168.05 473.73,168.05 
	474.45,161.97 "/>
<polygon class="st2" points="546.26,161.97 541.58,201.3 534.31,201.3 538.41,166.87 523.36,201.3 519.63,201.3 512.72,166.87 
	508.62,201.3 502.8,201.3 507.48,161.97 518.63,161.97 523.9,187.29 535.05,161.97 "/>
<polygon class="st2" points="575.4,194.87 574.64,201.3 550.3,201.3 554.98,161.97 562.49,161.97 558.57,194.87 "/>
<path class="st5" d="M504.75,426.4l-1.82,31.6h-57.26l8.31-54.1h37.67l-1.59,12.6c-0.69,5.46,3.24,9.89,8.76,9.89H504.75z"/>
<path class="st9" d="M482.73,316.77c-1.3,1.1-2.86,1.76-4.51,2.19c-1.05-1.55-2.48-2.89-4.06-3.9c-3.37-2.13-7.36-3.03-11.26-3.86
	c-4.64-0.99-9.35-1.94-14.08-2.53c-6.84-0.86-13.69-0.93-20.33,0.78c-5.01,1.29-9.64,3.54-13.97,6.34
	c-5.25,3.39-10.07,7.59-14.62,11.87c-0.6,0.57-1.2,1.13-1.8,1.71c-13.74,13.12-26.55,27.56-42.95,37.11
	c-4.86,2.84-10.15,5.25-15.77,5.64c-9.37,0.65-18.22-4.4-25.5-10.35c-20.82-17.03-33.83-42.3-55.27-58.55
	c-9.39-7.12-20.26-12.27-31.69-15.14c-2.82-0.71-5.66-1.28-8.53-1.7c-0.55-2.98-1.51-5.88-2.86-8.59
	c-2.4-4.81-6.03-8.98-10.42-12.08h-0.01c-0.88-0.02-1.76-0.01-2.64,0.01c-0.22,0-0.44,0.01-0.67,0.02
	c-1.52,0.05-3.04,0.14-4.56,0.28c-0.76-3.85-1.53-7.69-2.31-11.54c-0.22-0.01-0.43-0.02-0.65-0.04c-5.65-0.45-11.19-1.85-16.4-4.07
	c5.85,0.19,11.74-0.87,17.12-3.17c3.94-1.68,7.63-4.02,10.63-7.07c5.56-5.64,8.51-13.5,9.24-21.39c0.73-7.88-0.6-15.83-2.68-23.47
	c-4.75-17.57-13.48-34.04-25.31-47.85h-0.01c-0.96,0.4-1.94,0.72-2.92,0.99c-1,0.27-2,0.49-3.02,0.68c1.15-2.08,2.01-4.27,2.23-6.63
	c0.26-2.77-0.38-5.54-1.23-8.18c-1.8-5.65-4.56-11.06-8.58-15.42c-0.55-0.59-1.12-1.17-1.72-1.72c1.33-0.39,2.7-0.65,4.09-0.73
	c5.43-0.31,10.72,2.25,14.8,5.85c4.09,3.6,7.16,8.18,10.19,12.71c1.96,2.94,5.14,9.18,6.79,14.04v0.01
	c19.75,19.63,28.84,49.45,23.31,76.76c-1.55,7.71-4.39,15.51-10.11,20.91c-2.66,2.5-5.81,4.35-9.21,5.62
	c0.63,4.83,1.55,9.63,2.74,14.36c3.31,0.69,6.5,1.8,9.5,3.46c6.58,3.63,11.45,9.49,15.5,15.94c15.62-0.87,31.06,5.51,43.6,14.92
	c12.91,9.71,23.17,22.46,32.94,35.32c4.02,5.28,8,10.63,12.73,15.28c2.96,2.91,6.2,5.53,9.66,7.83c4.17-0.69,8.26-2.23,11.99-4.26
	c0.13-0.07,0.26-0.14,0.4-0.22c3.49-1.94,6.72-4.29,9.82-6.81c2.62-2.13,5.14-4.38,7.65-6.63c3.25-2.9,10.12-8.23,15.7-12.69
	c-1.06-2.82,0.88-6.48,3.9-6.99c1-0.17,2.08-0.06,2.96-0.56c1.23-0.71,1.54-2.3,2.06-3.63c1.05-2.69,3.5-4.79,6.32-5.43
	c1.71-0.38,3.47-0.26,5.2,0.07c0.81-2.71,1.66-5.42,3.06-7.88c1.48-2.59,3.65-4.89,6.44-5.96c2.49-0.95,5.25-0.84,7.89-0.48
	c4.08,0.58,8.18,1.81,11.45,4.3c0.43-0.24,0.87-0.46,1.33-0.66c2.36-1.02,5.04-1.49,7.61-1.41c2.06,0.07,4.07,0.41,6.05,0.92
	c1.29,0.33,2.56,0.72,3.82,1.16c0.56,0.19,1.12,0.39,1.68,0.59c1.32,0.48,2.63,0.99,3.93,1.48c1.61,0.6,3.24,1.2,4.89,1.7
	c1.53,0.48,3.08,0.88,4.64,1.15c1.19,0.21,2.4,0.34,3.61,0.37c0.84,0.03,1.67,0,2.51-0.08c1.12-0.1,2.31-0.28,3.49-0.41
	c2.38-0.25,4.74-0.31,6.46,0.79c0.47,0.3,0.89,0.69,1.25,1.18c0.5,0.69,0.77,1.48,0.84,2.3
	C485.26,313.29,484.28,315.44,482.73,316.77z"/>
<path class="st10" d="M558.41,363.36c-0.15-0.12-0.31-0.24-0.48-0.35c-0.16-0.11-0.32-0.22-0.49-0.32
	c-0.26-0.16-0.54-0.31-0.82-0.43c-0.13-0.07-0.26-0.12-0.39-0.17c-0.14-0.06-0.27-0.11-0.41-0.16c-0.1-0.03-0.2-0.06-0.31-0.09
	c-0.1-0.03-0.21-0.07-0.31-0.09c-0.02-0.01-0.04-0.01-0.06-0.02c-0.05-0.02-0.11-0.03-0.16-0.04c-0.13-0.04-0.26-0.07-0.4-0.09
	c-0.05-0.01-0.11-0.02-0.17-0.03c-0.09-0.02-0.18-0.03-0.28-0.04c-0.12-0.02-0.24-0.04-0.36-0.05c-0.11-0.01-0.23-0.03-0.36-0.03
	c-0.24-0.02-0.48-0.03-0.72-0.03h-45.73c-5.53,0-10.57,4.42-11.25,9.89l-3.1,24.59l-1.01,8.01l-1.59,12.6
	c-0.68,5.46,3.24,9.89,8.77,9.89h18.75c2.24-6.63,4.83-13.14,7.83-19.45c-0.91-0.79-1.51-1.8-1.78-3.04
	c-0.03-0.14-0.06-0.27-0.08-0.41l3.92-0.72c0.65-1.28,1.32-2.55,2.01-3.81c-1.77-0.68-2.92-1.7-3.44-3.07
	c-0.32-0.82-0.41-1.76-0.27-2.82c0.24-1.95,1.16-3.6,2.76-4.96s3.81-2.04,6.63-2.04c0.8,0,1.55,0.05,2.23,0.15
	c1.27-1.82,2.6-3.6,3.97-5.35c5.04-6.42,10.78-12.34,17.12-17.5C558.42,363.37,558.42,363.37,558.41,363.36z M521.13,395.9
	l-0.44,3.44c-0.22,1.78-0.61,3.3-1.18,4.57c-0.52,1.16-1.18,2.1-1.99,2.83c-1.68,1.52-4.16,2.28-7.42,2.28
	c-1.88,0-3.33-0.15-4.33-0.46l0.54-4.32c1.63,0.12,2.79,0.18,3.46,0.18c1.3,0,2.32-0.17,3.07-0.51c0.3-0.14,0.56-0.3,0.77-0.49
	c0.74-0.67,1.24-2.03,1.5-4.08l0.44-3.44l2.15-17.1h5.58L521.13,395.9z"/>
<path class="st9" d="M278.06,458h-27.59c-2.41-11.03-3.83-22.35-5.63-33.51c-2.87-17.81-6.77-35.45-11.67-52.82
	c-4.32-15.32-10.1-31.39-22.84-40.92c-11.86-8.88-27.55-10.42-42.36-10.78c-8.99-0.22-17.98-0.13-26.96,0.27
	c-9.46,0.43-19.1,1.25-27.83,4.92c-1.79,0.75-3.55,1.65-5.23,2.68c1.56-4.39,3.89-8.44,7.13-11.81c4.74-4.94,10.73-7.88,17.29-9.6
	c9.03-2.37,19.14-2.44,28.56-2.24c12.66,0.28,25.33,0.55,37.99,0.82c12.52,0.26,25.63,0.69,36.49,6.92
	c8.54,4.9,14.87,13.04,19.15,21.91c4.28,8.87,6.67,18.51,8.84,28.12C270.51,393.58,275.41,425.7,278.06,458z"/>
<path class="st9" d="M436.74,337.83c-6.98,18.93-12.43,38.33-15.71,58.07c-0.45,2.67-0.85,5.34-1.21,8.01h-41.58
	c2.14-2.61,4.33-5.29,6.55-8.01c9.17-11.24,18.87-23.23,27.84-34.19c3.89,0.61,8.24-1.43,9.9-5.07c1.11-2.45,1.34-5.65,3.67-6.98
	c0.95-0.55,2.09-0.66,3.09-1.13c2.87-1.35,3.6-5.12,3.34-8.28c-0.09-1.06-0.24-2.11-0.46-3.14c0.07,0,0.14,0,0.21,0.01
	c0.74,0.05,1.47,0.13,2.21,0.25c0.24,0.04,0.49,0.09,0.74,0.14c0.16,0.03,0.32,0.06,0.47,0.09c0.24,0.05,0.47,0.11,0.7,0.17
	C436.58,337.79,436.66,337.81,436.74,337.83z"/>
<path class="st9" d="M392.59,229.74l1.19,4.91l-4.47,2.78c-0.08,1.35-0.31,2.69-0.68,4.01l3.49,2.95l-4.4,7.48l-4.72-0.89
	c-1.01,1.01-2.12,1.94-3.33,2.77l-0.03,4.85l-6.97,2.55l-1.12,0.4l-2.19-4.04c-1.38,0.11-2.72,0.08-4.03-0.09l-1.18,1.3l-1.68,11.82
	l-0.97-0.18l-2.33,3.95l1.85,1.56c-0.19,0.7-0.32,1.41-0.36,2.13l-2.36,1.46l0.98,4.03l1.39-0.19l-0.02,0.16l-10.11,71.48
	c3.49-1.94,6.72-4.29,9.82-6.81c2.62-2.13,5.14-4.38,7.65-6.63c3.25-2.9,10.12-8.23,15.7-12.69c-1.06-2.82,0.88-6.48,3.9-6.99
	c1-0.17,2.08-0.06,2.96-0.56c1.23-0.71,1.54-2.3,2.06-3.63c1.05-2.69,3.5-4.79,6.32-5.43c1.71-0.38,3.47-0.26,5.2,0.07
	c0.81-2.71,1.66-5.42,3.06-7.88c1.48-2.59,3.65-4.89,6.44-5.96c2.49-0.95,5.25-0.84,7.89-0.48c4.08,0.58,8.18,1.81,11.45,4.3
	c0.43-0.24,0.87-0.46,1.33-0.66l2.96-18.75c0.91-5.78,6.35-10.47,12.16-10.47h17.78c8.11-14.62,16.86-28.92,26.42-42.63H392.59z
	 M382.05,280.01l-2.33,3.95l-2.49-0.47c-0.53,0.54-1.12,1.03-1.76,1.47l-0.01,2.56l-4.28,1.56l-1.16-2.14
	c-0.34,0.03-0.67,0.04-1.01,0.04c-0.38-0.01-0.75-0.04-1.12-0.09l-1.83,2.03c0.48-1.95,1.22-3.87,2.1-5.72
	c0.43,0.12,0.88,0.19,1.36,0.2h0.18c3.47,0,6.68-2.79,7.19-6.24c0.29-1.98-0.38-3.74-1.66-4.86c0.96-1.16,1.99-2.28,3.07-3.31
	l-0.23,0.67c0.47,0.45,0.9,0.96,1.25,1.53l2.63-0.35l0.98,4.03l-2.37,1.46c-0.04,0.72-0.16,1.43-0.35,2.12L382.05,280.01z
	 M418.65,268.43l-3.6,0.21c-0.56,0.86-1.21,1.69-1.94,2.46l0.84,3.3l-5.38,3.41l-2.33-2.38c-0.98,0.32-1.97,0.53-2.95,0.63
	l-1.9,3.28l-5.72-1.04l0.32-3.55c-0.1-0.05-0.2-0.11-0.3-0.17c0.76-1.57,1.63-3.1,2.58-4.57c1.71,1.12,3.96,1.53,6.34,0.97
	c4.79-1.13,8.29-5.78,7.83-10.37c-0.15-1.48-0.7-2.78-1.54-3.82c2.29-1.68,4.72-3.18,7.24-4.48l1.87,3.37l-2.77,2.65
	c0.18,0.94,0.25,1.89,0.22,2.85l3.08,1.41L418.65,268.43z"/>
<path class="st10" d="M502.61,217.34c-3.06,4.07-6.06,8.21-8.97,12.4H392.59l-0.66-2.71l-4.98,0.67c-0.66-1.08-1.46-2.05-2.36-2.9
	l1.04-3.13l0.57-1.7l-7.03-3.3l-0.25,0.28l0.41-2.91h46.76c2.32,2.06,5.44,3.3,9,3.3H502.61z"/>
<path class="st10" d="M575.59,253.35c-2.92,0-5.6,2.42-5.98,5.41l-9.98,77.86c-0.39,2.98,1.67,5.41,4.59,5.41h35.79
	c5.38-8.85,11.16-17.46,17.38-25.71l10.46-34.59l5.12-16.95h11.09l-8.1,27.29v0.01l-0.95,3.22c3.84-4.13,7.84-8.13,11.98-11.97
	l1.26-9.81l5.84,3.5c10.63-9.04,22.17-17.04,34.42-23.67H575.59z M613.1,286.53l-22.84,12.27l19.93,10.42l-1.67,13.01l-30.38-18.22
	l1.36-10.6l35.26-19.89L613.1,286.53z"/>
<polygon class="st9" points="613.1,286.53 590.26,298.8 610.19,309.22 608.52,322.23 578.14,304.01 579.5,293.41 614.76,273.52 "/>
<path class="st9" d="M644.06,264.78l-8.1,27.29v0.01l-0.95,3.22c-6.25,6.68-12.11,13.71-17.62,21.02l10.46-34.59l5.12-16.95H644.06z
	"/>
<path class="st9" d="M654.09,277.02c-1.21,1.02-2.4,2.06-3.58,3.11c-1.19,1.05-2.36,2.12-3.52,3.2l1.26-9.81L654.09,277.02z"/>
<path class="st9" d="M379.17,216.67l7.03,3.3l-0.57,1.7c-3.32,1.81-6.48,3.89-9.41,6.26c0.37,0.14,0.73,0.31,1.08,0.49l-0.19,1.32
	h2.09c2.43,2.16,3.7,5.5,3.15,9.26c-0.67,4.6-3.9,8.58-8.04,10.53c-1.73,0.81-3.62,1.27-5.55,1.27c-1.22,0-2.36-0.18-3.42-0.52
	l1.88-13.27l1.31-9.26c-5.02,1.52-9.14,5.98-9.92,11.25c-0.49,3.32,0.46,6.32,2.37,8.46c-1.68,3.79-2.86,7.79-3.43,11.87l-2.79-1.31
	l1.61-4.82c-0.9-0.86-1.69-1.83-2.37-2.9l-4.97,0.67l-1.85-7.62l4.46-2.77c0.09-1.36,0.32-2.7,0.69-4.02l-3.5-2.96l4.41-7.48
	l4.72,0.91c1.01-1.02,2.12-1.96,3.33-2.78l0.03-4.86l8.09-2.94l0.57,1.04l1.55-10.97h50.45c0.5,3,1.96,5.61,4.11,7.52h-46.76
	l-0.41,2.91L379.17,216.67z"/>
<path class="st9" d="M523.28,378.8l-2.15,17.1l-0.44,3.44c-0.22,1.78-0.61,3.3-1.18,4.57c-0.52,1.16-1.18,2.1-1.99,2.83
	c-1.68,1.52-4.16,2.28-7.42,2.28c-1.88,0-3.33-0.15-4.33-0.46l0.54-4.32c1.63,0.12,2.79,0.18,3.46,0.18c1.3,0,2.32-0.17,3.07-0.51
	c0.3-0.14,0.56-0.3,0.77-0.49c0.74-0.67,1.24-2.03,1.5-4.08l0.44-3.44l2.15-17.1H523.28z"/>
<path class="st10" d="M467.22,272.37c-1.04,1.88-2.08,3.77-3.1,5.66c-0.99,1.84-1.98,3.69-2.95,5.54c-3.24,0.15-6,1.46-8.27,3.94
	c-2.43,2.64-3.97,6.07-4.64,10.28c-0.18,1.15-0.27,2.25-0.28,3.31c-1.98-0.51-3.99-0.85-6.05-0.92c-2.57-0.08-5.25,0.39-7.61,1.41
	l2.96-18.75c0.91-5.78,6.35-10.47,12.16-10.47H467.22z"/>
<path class="st9" d="M461.17,283.57c-0.8,1.51-1.59,3.03-2.37,4.55c-0.87,0.43-1.66,1.11-2.36,2.05c-1.31,1.73-2.23,4.25-2.75,7.54
	c-0.05,0.3-0.09,0.6-0.12,0.88c-0.6,1.22-1.19,2.44-1.77,3.67c-1.26-0.44-2.53-0.83-3.82-1.16c0.01-1.06,0.1-2.16,0.28-3.31
	c0.67-4.21,2.21-7.64,4.64-10.28C455.17,285.03,457.93,283.72,461.17,283.57z"/>
<path class="st10" d="M443.59,145.93c-8.27,0-15.75,6.66-16.73,14.88l-4.96,41.65c-0.16,1.41-0.13,2.77,0.08,4.06
	c0.5,3,1.96,5.61,4.11,7.52c2.32,2.06,5.44,3.3,9,3.3h67.52c5.17-6.85,10.56-13.52,16.19-19.98l-6.12-30.49l-4.1,34.43h-5.82
	l4.68-39.33h11.15l5.27,25.33l11.15-25.33h11.21l-1,8.4c3.17-2.88,6.42-5.67,9.72-8.38v-0.02h0.03
	c6.92-5.71,14.11-11.08,21.56-16.04H443.59z M465.39,201.3h-7.13l2.04-17.09h-15.1l-2.03,17.09h-7.13l4.68-39.33h7.13l-1.92,16.16
	h15.09l1.92-16.16h7.13L465.39,201.3z M502.37,168.05h-10.52l-3.95,33.25h-7.65l3.96-33.25h-10.52l0.73-6.08h28.67L502.37,168.05z"
	/>
<polygon class="st9" points="470.07,161.97 465.39,201.3 458.26,201.3 460.3,184.21 445.2,184.21 443.17,201.3 436.04,201.3 
	440.72,161.97 447.85,161.97 445.93,178.13 461.02,178.13 462.94,161.97 "/>
<polygon class="st9" points="503.09,161.97 502.37,168.05 491.85,168.05 487.9,201.3 480.25,201.3 484.21,168.05 473.69,168.05 
	474.42,161.97 "/>
<path class="st9" d="M546.22,161.97l-1,8.4c-2.17,1.95-4.31,3.94-6.42,5.96c-0.59,0.57-1.18,1.13-1.76,1.71l1.33-11.17l-7.65,17.5
	c-4.09,4.22-8.06,8.56-11.92,12.99l-6.12-30.49l-4.1,34.43h-5.82l4.68-39.33h11.15l5.27,25.33l11.15-25.33H546.22z"/>
<path class="st9" d="M481.79,403.91c-5.3,17.6-8.69,35.77-10.08,54.09h-26.08l8.3-54.09H481.79z"/>
<g>
	<path class="st10" d="M458.8,288.12c-1.78,3.46-3.53,6.95-5.23,10.47c0.03-0.28,0.07-0.58,0.12-0.88c0.52-3.29,1.44-5.81,2.75-7.54
		C457.14,289.23,457.93,288.55,458.8,288.12z"/>
</g>
<g class="st11">
	<path class="st10" d="M537.34,386.23c-0.79,1.11-1.55,2.24-2.3,3.39c-0.08-0.01-0.16-0.01-0.24-0.01c-2.68,0-4.12,0.83-4.33,2.49
		c-0.11,0.9,0.47,1.58,1.73,2.04c-0.96,1.59-1.88,3.2-2.77,4.83c-1.77-0.68-2.92-1.7-3.44-3.07c-0.32-0.82-0.41-1.76-0.27-2.82
		c0.24-1.95,1.16-3.6,2.76-4.96s3.81-2.04,6.63-2.04C535.91,386.08,536.66,386.13,537.34,386.23z"/>
</g>
<g>
	<path class="st10" d="M535.04,389.62c-0.98,1.48-1.92,2.99-2.84,4.52c-1.26-0.46-1.84-1.14-1.73-2.04
		c0.21-1.66,1.65-2.49,4.33-2.49C534.88,389.61,534.96,389.61,535.04,389.62z"/>
</g>
<g class="st11">
	<path class="st10" d="M527.42,402.78c-0.71,1.38-1.4,2.77-2.06,4.17c-0.91-0.79-1.51-1.8-1.78-3.04c-0.03-0.14-0.06-0.27-0.08-0.41
		L527.42,402.78z"/>
</g>
<path class="st12" d="M230.84,225.78c-1.56,7.71-4.39,15.51-10.12,20.91c-2.66,2.51-5.81,4.35-9.21,5.62
	c0.64,4.83,1.55,9.63,2.74,14.36c-7.93-1.66-16.51-0.94-24.64,0.28c-8.32,1.25-16.78,2.95-25.12,2.89
	c-0.48-2.88-1.08-5.74-1.79-8.56c-2.59-10.41-6.65-20.45-12.05-29.71c-1.53,0.68-3.27,0.92-4.89,0.53c-4.22-1-7.15-5.27-7.47-9.59
	c-0.16-2.08,0.37-4.19,1.53-5.88c-4.02-5.47-7.82-11.11-10.94-17.09c-1.3-2.47-2.48-5-3.51-7.61c-1.25-3.15-2.28-6.42-3.02-9.75
	c3.88-8.46,10.2-15.79,18.05-20.8c2.06-1.31,4.21-2.47,6.4-3.56c3.16-1.58,6.4-3.01,9.72-4.21c3.49-1.26,7.07-2.25,10.73-2.84
	c5.56-0.9,11.29-0.89,16.73-2.36c4.73-1.27,9.41-3.98,11.79-8.15c4.14,1.92,7.82,4.92,11.11,8.12c0.21,0.21,0.43,0.42,0.64,0.63v0
	C227.28,168.65,236.37,198.46,230.84,225.78z"/>
<path class="st12" d="M482.77,316.76c-2.2,1.88-5.19,2.48-8.06,2.86c-6.63,0.88-13.38,0.9-20.02,0.05c0.8,1.26,1.74,2.44,2.76,3.55
	c1.82,1.98,3.93,3.74,6.07,5.37c4.31,3.27,8.94,6.18,12.59,10.16c1.19,1.3,2.3,2.78,2.59,4.52c0.29,1.74-0.5,3.77-2.15,4.38
	c-1.45,0.53-3.05-0.12-4.43-0.79c0,0,0,0-0.01,0c-0.07,0.08-0.15,0.16-0.24,0.23c-0.68,0.56-1.57,0.78-2.45,0.88
	c-3.55,0.43-6.96-0.75-10.13-2.53c-0.88,0.75-2.24,1.11-3.45,1.07c-5.29-0.15-9.46-4.33-14.14-6.79c-2.86-1.51-6.05-2.4-9.28-2.62
	c-0.07,0-0.14-0.01-0.21-0.01c-1.18-5.63-4.25-10.85-8.4-14.88c-4.91-4.76-11.25-7.91-17.88-9.57c-0.58-0.15-1.16-0.28-1.74-0.39
	c0.81-2.71,1.66-5.42,3.06-7.88c1.48-2.59,3.65-4.89,6.44-5.96c2.49-0.95,5.25-0.85,7.89-0.48c4.08,0.57,8.18,1.81,11.45,4.3
	c0.43-0.24,0.88-0.46,1.33-0.66c2.37-1.03,5.04-1.49,7.62-1.41c2.05,0.07,4.07,0.41,6.05,0.92c1.85,0.47,3.68,1.09,5.49,1.75
	c1.32,0.48,2.63,0.99,3.94,1.48c1.6,0.61,3.24,1.2,4.89,1.71c1.53,0.47,3.08,0.87,4.64,1.14c1.2,0.21,2.4,0.34,3.62,0.38
	c0.84,0.02,1.67,0,2.51-0.08c1.11-0.11,2.3-0.29,3.49-0.41c2.37-0.26,4.73-0.31,6.45,0.79c0.47,0.3,0.89,0.69,1.25,1.18
	c0.51,0.69,0.77,1.48,0.84,2.3C485.3,313.29,484.32,315.44,482.77,316.76z"/>
<g>
	<path class="st12" d="M552.73,361.41H507c-5.53,0-10.57,4.43-11.25,9.89l-3.1,24.59l-1.01,8.01l-1.59,12.6
		c-0.69,5.46,3.24,9.89,8.76,9.89h45.73c5.53,0,10.56-4.43,11.25-9.89l1.59-12.6l1.01-8.01l3.1-24.59
		C562.18,365.84,558.26,361.41,552.73,361.41z"/>
</g>
<path class="st12" d="M278.1,458H135.14c-7.01-26.05-13.22-52.37-21.46-78.06c-3.43-10.7-7.24-21.42-8.07-32.62
	c-0.83-11.2,1.72-23.19,9.5-31.3c4.75-4.94,10.74-7.88,17.3-9.6c9.03-2.37,19.13-2.44,28.56-2.24c12.66,0.27,25.33,0.54,37.99,0.81
	c12.52,0.27,25.63,0.69,36.49,6.92c8.54,4.9,14.87,13.04,19.15,21.91c4.28,8.87,6.67,18.51,8.83,28.12
	C270.55,393.58,275.45,425.7,278.1,458z"/>
<path class="st12" d="M207.52,149.01c-0.21-0.21-0.43-0.42-0.64-0.63c-3.3-3.21-6.98-6.2-11.11-8.12
	c-2.38,4.17-7.06,6.88-11.79,8.15c-5.44,1.47-11.16,1.46-16.73,2.36c-3.66,0.59-7.24,1.58-10.73,2.84
	c-3.32,1.19-6.56,2.63-9.72,4.21c-2.18,1.09-4.34,2.24-6.4,3.56c-7.85,5-14.17,12.34-18.05,20.8c-1.98-8.92-1.9-18.26,1.34-26.75
	c0.31-0.82,0.65-1.62,1.01-2.41c7.19-15.65,23.76-25.08,39.41-32.76c3.69-1.81,7.52-3.63,11.63-3.86
	c5.44-0.31,10.72,2.25,14.81,5.85c4.09,3.6,7.16,8.18,10.19,12.71C202.7,137.9,205.88,144.14,207.52,149.01z"/>
<path class="st12" d="M128.88,199.54c-0.77,2.36-2.34,4.46-4.46,5.77c0.64-3.97-0.1-8.14-2.07-11.65c0.02,2.36-1.75,4.45-3.89,5.46
	c-2.13,1-4.57,1.11-6.93,1.05c2.31-0.97,4.81-2.11,5.98-4.33c1.1-2.08,0.77-4.61,0.28-6.91c-0.64-3.06-1.56-6.18-3.6-8.54
	c-1.62-1.87-3.83-3.13-5.51-4.94c-2.3-2.48-3.45-5.99-3.08-9.35c0.3-2.77,1.71-5.51,4.09-6.96c0.5-0.31,1.05-0.54,1.62-0.7
	c0.71-2.48,2.3-4.72,4.55-5.98c2.73-1.53,6.41-1.38,8.84,0.58c-0.36,0.79-0.7,1.59-1.01,2.41c-3.24,8.48-3.32,17.82-1.34,26.75
	c0.74,3.33,1.76,6.61,3.02,9.75C126.41,194.53,127.58,197.06,128.88,199.54z"/>
<path class="st12" d="M569.65,258.76c0.38-2.99,3.06-5.41,5.98-5.41h56.27l3.34-23.61H392.63l1.19,4.91l-4.47,2.77
	c-0.08,1.35-0.31,2.7-0.68,4.01l3.49,2.96l-4.41,7.47l-4.72-0.89c-1.01,1.01-2.12,1.95-3.33,2.77l-0.03,4.85l-6.98,2.54l-0.75,5.34
	l-0.12,0.86c0.53-0.02,1.04,0.01,1.54,0.08l1.87-2.07l3.71,1.74l-0.85,2.55c0.47,0.45,0.89,0.97,1.25,1.54l2.63-0.36l0.98,4.03
	l-2.36,1.46c-0.04,0.72-0.17,1.43-0.36,2.12l1.85,1.56l-2.33,3.95l-2.49-0.47c-0.53,0.53-1.12,1.03-1.76,1.47l-0.01,2.56l-4.28,1.56
	l-1.16-2.14c-0.34,0.03-0.67,0.04-1.01,0.03l-8.65,61.15c2.62-2.12,5.14-4.38,7.65-6.62c3.25-2.9,10.12-8.23,15.7-12.7
	c-1.06-2.81,0.88-6.48,3.9-6.99c1-0.17,2.08-0.05,2.95-0.56c1.23-0.71,1.55-2.3,2.06-3.63c1.05-2.69,3.5-4.8,6.32-5.43
	c1.7-0.38,3.47-0.26,5.19,0.07c0.81-2.71,1.66-5.42,3.06-7.88c1.48-2.59,3.65-4.89,6.44-5.96c2.49-0.95,5.25-0.85,7.89-0.48
	c4.08,0.57,8.18,1.81,11.45,4.3c0.43-0.24,0.88-0.46,1.33-0.66l2.96-18.75c0.91-5.78,6.36-10.47,12.16-10.47h74.61
	c5.81,0,9.77,4.69,8.86,10.47l-4.72,29.93c-0.91,5.78-6.36,10.47-12.16,10.47h-58.61c1.82,1.98,3.93,3.74,6.07,5.37
	c4.31,3.27,8.94,6.18,12.59,10.16c1.19,1.3,2.3,2.78,2.59,4.52c0.29,1.74-0.5,3.77-2.15,4.38c-1.45,0.53-3.05-0.12-4.43-0.79
	c0,0,0,0-0.01,0c-0.07,0.08-0.15,0.16-0.24,0.23c-0.68,0.56-1.57,0.78-2.45,0.88c-3.55,0.43-6.96-0.75-10.13-2.53
	c-0.88,0.75-2.24,1.11-3.45,1.07c-5.29-0.15-9.46-4.33-14.14-6.79c-2.86-1.51-6.05-2.4-9.28-2.62c-0.07,0-0.14-0.01-0.21-0.01
	c0.22,1.03,0.37,2.08,0.46,3.14c0.26,3.16-0.47,6.94-3.34,8.29c-1,0.47-2.14,0.58-3.09,1.12c-2.33,1.34-2.56,4.53-3.67,6.98
	c-1.66,3.64-6.01,5.68-9.9,5.07c-8.97,10.96-18.67,22.95-27.84,34.19h107.82l3.1-24.59c0.69-5.46,5.73-9.89,11.25-9.89h45.73
	c5.53,0,9.45,4.43,8.76,9.89l-3.1,24.59h53.34l7.62-53.87h-55.1c-2.92,0-4.98-2.42-4.59-5.41L569.65,258.76z M418.69,268.43
	l-3.6,0.21c-0.56,0.86-1.2,1.69-1.94,2.46l0.84,3.31l-5.38,3.4l-2.32-2.37c-0.99,0.32-1.97,0.52-2.96,0.63l-1.89,3.27l-5.72-1.03
	l0.32-3.56c-0.81-0.43-1.57-0.95-2.25-1.56l-3.52,1.31l-2.7-4.86l2.77-2.65c-0.18-0.94-0.25-1.89-0.22-2.85l-3.08-1.41l1.89-5.85
	l3.6-0.2c0.56-0.87,1.2-1.7,1.94-2.46l-0.84-3.31l5.38-3.4l2.33,2.37c0.98-0.32,1.97-0.53,2.95-0.63l1.89-3.27l5.72,1.03l-0.31,3.56
	c0.81,0.42,1.56,0.95,2.24,1.57l3.52-1.31l2.71,4.86l-2.77,2.66c0.18,0.93,0.25,1.89,0.22,2.85l3.08,1.41L418.69,268.43z"/>
<path class="st12" d="M454.69,319.68c-1.05-0.13-2.1-0.29-3.14-0.46"/>
<path class="st12" d="M433.03,302.25c-1.99,1.11-3.67,2.67-4.75,4.71"/>
<path class="st12" d="M446.39,330.41c2.82,0.8,5.1,2.82,7.37,4.69c5.63,4.63,11.8,8.59,18.35,11.77"/>
<path class="st12" d="M439.76,334.83c5.5,0.45,10.13,4.09,14.58,7.36c1.57,1.15,3.22,2.29,4.95,3.26"/>
<path class="st12" d="M404.19,312.27c-0.05,0.15-0.09,0.31-0.14,0.46"/>
<path class="st12" d="M156.57,234.16c9.08,11.56,23.1,19.09,37.74,20.28c5.78,0.47,11.81-0.11,17.21-2.13"/>
<path class="st12" d="M164.5,269.84c-3.2-0.02-6.39-0.3-9.55-0.97"/>
<path class="st12" d="M239.26,286.06c-0.47,0.02-0.94,0.06-1.41,0.1c-10.66,0.89-20.73,5.11-31.13,7.59
	c-13.19,3.15-27.04,3.5-40.38,1.02c-5.86-1.09-12.65-3.79-13.96-9.48c-0.04-0.19-0.08-0.39-0.11-0.59
	c-0.55-3.44,1.12-7.07,0.05-10.39c-0.36-1.11-1.01-2.12-1.18-3.27c-0.44-2.94,2.34-5.36,5.05-6.57c2.21-0.99,4.69-1.7,6.51-3.2
	c0.71,2.83,1.3,5.69,1.79,8.56c8.34,0.06,16.8-1.64,25.12-2.89c8.12-1.22,16.71-1.94,24.64-0.28c3.31,0.7,6.5,1.8,9.5,3.46
	C230.34,273.76,235.21,279.62,239.26,286.06z"/>
<path class="st12" d="M344.93,363.32c-2.32-1.16-4.57-2.47-6.74-3.91"/>
<path class="st12" d="M416.98,356.45c-1.41,1.72-2.86,3.48-4.31,5.26c-8.97,10.96-18.67,22.95-27.84,34.19
	c-2.22,2.72-4.41,5.4-6.55,8.01c-1.58,1.93-3.14,3.82-4.67,5.67c-2.54,3.08-5.16,6.23-8.61,8.24c-6.7,3.92-15.11,2.86-22.67,1.09
	c-11.35-2.65-22.38-6.63-32.83-11.8c1.21,5.61,2.42,11.23,3.62,16.84c1.5,7,3.02,14.02,5.39,20.74c1.62,4.6,3.63,9.01,5.86,13.31
	H278.1c-2.65-32.3-7.55-64.42-14.66-96.04c-2.16-9.61-4.55-19.25-8.83-28.12c-4.28-8.87-10.61-17-19.15-21.91
	c-10.86-6.23-23.97-6.66-36.49-6.92c-12.66-0.27-25.33-0.54-37.99-0.81c-9.42-0.2-19.53-0.13-28.56,2.24
	c4.31-8.85,11.37-16.36,19.97-21.14c1.31,5.69,8.1,8.39,13.96,9.48c13.33,2.48,27.19,2.13,40.38-1.02
	c10.41-2.48,20.48-6.7,31.13-7.59c0.47-0.04,0.94-0.07,1.41-0.1c15.62-0.87,31.06,5.51,43.6,14.93
	c12.91,9.7,23.16,22.46,32.94,35.32c4.02,5.28,8,10.63,12.73,15.28c2.96,2.91,6.2,5.53,9.66,7.83c0,0,0,0,0,0
	c4.18-0.69,8.26-2.23,11.99-4.26c0.13-0.07,0.27-0.15,0.4-0.22c3.49-1.94,6.72-4.29,9.82-6.82c2.62-2.12,5.14-4.38,7.65-6.62
	c3.25-2.9,10.12-8.23,15.7-12.7c1.79-1.44,3.45-2.78,4.82-3.93C394.74,326.94,413.04,334.79,416.98,356.45z"/>
<path class="st12" d="M309.5,407.11c-10.08-4.98-19.61-11.07-28.37-18.12"/>
<path class="st12" d="M155.08,225.59c-0.07,2.66-1.98,4.89-4.42,5.97"/>
<path class="st12" d="M195.37,132.14c1.96,1.14,2.07,3.99,1.31,6.13c-0.25,0.7-0.55,1.36-0.91,1.99"/>
<path class="st12" d="M111.32,158.43c2.12-0.61,4.55-0.21,6.11,1.34"/>
<path class="st4" d="M154.26,211.8c-0.71,2.48-0.93,5.27,0.32,7.52c-0.3-0.45-6.54-9.7-13.16-4.42c-0.62,0.5-1.15,1.08-1.59,1.73
	c-4.02-5.47-7.82-11.11-10.94-17.09c-1.3-2.47-2.48-5-3.51-7.61c-1.25-3.15-2.28-6.42-3.02-9.75c3.88-8.46,10.2-15.79,18.05-20.8
	c2.06-1.31,4.21-2.47,6.4-3.56c3.16-1.58,6.4-3.01,9.72-4.21c-5.02,5.22-7.16,14.54-6.61,20.68c0.47,5.19,2.7,10.03,4.54,14.9
	c1.84,4.88,3.32,10.16,2.22,15.25C156.13,206.97,154.97,209.32,154.26,211.8z"/>
<line class="st12" x1="688.36" y1="458" x2="502.93" y2="458"/>
<line class="st12" x1="445.67" y1="458" x2="324.37" y2="458"/>
<line class="st12" x1="135.14" y1="458" x2="94.72" y2="458"/>
<path class="st12" d="M492.65,395.9l-1.01,8.01H378.28c2.14-2.61,4.33-5.29,6.55-8.01H492.65z"/>
<polygon class="st12" points="628.93,342.02 620.18,403.9 557.39,403.9 558.39,395.9 611.73,395.9 619.36,342.02 "/>
<path class="st12" d="M648.1,206.51l-6.63,46.83h-9.57l3.34-23.61l2.22-15.7h-55.9c2.6-1.9,4.69-4.52,5.9-7.52H648.1z"/>
<path class="st12" d="M426.13,214.04h-46.76l-0.41,2.91v0l-3.29,3.63c-1.3-0.18-2.64-0.21-4.02-0.09l-1.63-3l1.55-10.98h50.45
	C422.52,209.52,423.98,212.13,426.13,214.04z"/>
<path class="st12" d="M377.34,228.42l-0.19,1.32l-2.8,19.79c-1.73,0.81-3.62,1.27-5.55,1.27c-1.22,0-2.36-0.18-3.41-0.52l3.19-22.53
	c1.19-0.36,2.42-0.56,3.68-0.56C374.14,227.19,375.86,227.63,377.34,228.42z"/>
<path class="st12" d="M372.71,261.14l-0.75,5.34l-0.12,0.86c-0.19,0-0.39,0.01-0.58,0.03l-1.16-2.14l-4.27,1.56l-0.02,2.56
	c-0.64,0.44-1.22,0.93-1.76,1.47l-1.52-0.29l1.68-11.82l1.19-1.31c1.3,0.17,2.64,0.21,4.02,0.09l2.19,4.04L372.71,261.14z"/>
<path class="st12" d="M369.05,286.97l-8.65,61.15c-3.1,2.53-6.33,4.87-9.82,6.82l10.11-71.48l0.02-0.17l1.23-0.17
	c0.36,0.57,0.78,1.08,1.25,1.53l-0.85,2.55l3.71,1.74l1.87-2.07C368.3,286.94,368.67,286.97,369.05,286.97z"/>
<path class="st12" d="M429.33,348.53c-1,0.47-2.14,0.58-3.09,1.12c-2.33,1.34-2.56,4.53-3.67,6.98c-1.66,3.64-6.01,5.68-9.9,5.07
	c1.46-1.78,2.9-3.54,4.31-5.26c-3.94-21.65-22.24-29.51-28.41-31.57c-1.37,1.14-3.03,2.49-4.82,3.93c-1.06-2.81,0.88-6.48,3.9-6.99
	c1-0.17,2.08-0.05,2.95-0.56c1.23-0.71,1.55-2.3,2.06-3.63c1.05-2.69,3.5-4.8,6.32-5.43c1.7-0.38,3.47-0.26,5.19,0.07
	c0.59,0.11,1.17,0.24,1.74,0.39c6.63,1.66,12.97,4.81,17.88,9.57c4.15,4.02,7.22,9.24,8.4,14.88c0.22,1.03,0.37,2.08,0.46,3.14
	C432.92,343.41,432.2,347.18,429.33,348.53z"/>
<path class="st12" d="M581.56,214.04c-2.81,2.07-6.23,3.3-9.79,3.3H435.13c-3.56,0-6.68-1.24-9-3.3h-46.76l-0.41,2.91l0.25-0.28
	l7.03,3.3l-1.6,4.83c0.89,0.85,1.69,1.82,2.36,2.9l4.98-0.67l0.66,2.71h242.61l2.22-15.7H581.56z M612.02,222.39h-5.43v-1.2h5.43
	V222.39z M621.5,224.61h-6.04l0.91-5.65h6.04L621.5,224.61z M629.91,223.51l-0.89,0.82l-1.59-1.73l-2.23,1.79l-0.75-0.94l2.16-1.74
	l-1.54-1.66l0.88-0.82l1.6,1.73l2.22-1.79l0.75,0.94l-2.16,1.73L629.91,223.51z"/>
<path class="st12" d="M379.24,229.74h-2.09l0.19-1.32C378.03,228.78,378.66,229.23,379.24,229.74z"/>
<path class="st12" d="M382.39,239c-0.67,4.6-3.9,8.58-8.04,10.53l2.8-19.79h2.09C381.67,231.9,382.94,235.24,382.39,239z"/>
<path class="st12" d="M417.34,358.72c-0.1-0.77-0.22-1.53-0.36-2.27"/>
<path class="st12" d="M388.57,324.88c-1.28-0.43-2.04-0.61-2.04-0.61"/>
<path class="st12" d="M692.64,253.35H575.63c-2.92,0-5.6,2.42-5.98,5.41l-9.98,77.85c-0.38,2.99,1.67,5.41,4.59,5.41h117.01
	c2.92,0,5.6-2.42,5.98-5.41l9.98-77.85C697.61,255.77,695.56,253.35,692.64,253.35z M608.56,322.23l-30.38-18.22l1.36-10.6
	l35.27-19.9l-1.67,13.02L590.3,298.8l19.93,10.41L608.56,322.23z M636,292.07l-11.43,38.52h-11.45l14.77-48.86v-0.01l5.12-16.95
	h11.09L636,292.07L636,292.07z M677.31,302.33l-35.26,19.9l1.67-13.02l22.84-12.27l-19.93-10.41l1.67-13.02l30.38,18.22
	L677.31,302.33z"/>
<polygon class="st12" points="613.14,286.53 590.3,298.8 610.23,309.21 608.56,322.23 578.18,304.01 579.54,293.41 614.8,273.51 "/>
<polygon class="st12" points="644.1,264.77 636,292.07 636,292.07 624.57,330.6 613.12,330.6 627.89,281.73 627.89,281.73 
	633.01,264.77 "/>
<polygon class="st12" points="678.67,291.73 677.31,302.33 642.05,322.23 643.71,309.21 666.55,296.94 646.62,286.53 648.29,273.51 
	"/>
<rect x="606.59" y="221.18" class="st12" width="5.43" height="1.2"/>
<path class="st12" d="M616.37,218.96l-0.91,5.65h6.04l0.91-5.65H616.37z M620.47,223.4h-3.6l0.52-3.24h3.6L620.47,223.4z"/>
<polygon class="st12" points="620.99,220.16 620.47,223.4 616.87,223.4 617.4,220.16 "/>
<g>
	<polygon class="st12" points="628.37,221.85 629.91,223.51 629.02,224.33 627.43,222.6 625.2,224.39 624.45,223.45 626.61,221.72 
		625.07,220.05 625.96,219.24 627.55,220.96 629.78,219.18 630.53,220.12 	"/>
</g>
<path class="st12" d="M389.35,237.42l4.47-2.77l-1.19-4.91l-0.66-2.71l-4.98,0.67c-0.67-1.08-1.47-2.05-2.36-2.9l1.6-4.83l-7.03-3.3
	l-0.25,0.28v0l-3.29,3.63c-1.3-0.18-2.64-0.21-4.02-0.09l-1.63-3l-0.57-1.05l-8.09,2.94l-0.04,4.86c-1.21,0.82-2.32,1.76-3.33,2.78
	l-4.72-0.9l-4.41,7.48l3.49,2.95c-0.37,1.33-0.6,2.67-0.68,4.02l-4.46,2.77l1.84,7.62l4.98-0.67c0.67,1.08,1.47,2.04,2.37,2.9
	l-1.61,4.82l7.03,3.3l2.36-2.6l1.19-1.31c1.3,0.17,2.64,0.21,4.02,0.09l2.19,4.04l1.11-0.41l6.98-2.54l0.03-4.85
	c1.21-0.83,2.32-1.76,3.33-2.77l4.72,0.89l4.41-7.47l-3.49-2.96C389.04,240.12,389.27,238.77,389.35,237.42z M382.39,239
	c-0.67,4.6-3.9,8.58-8.04,10.53c-1.73,0.81-3.62,1.27-5.55,1.27c-1.22,0-2.36-0.18-3.41-0.52c-4.63-1.48-7.51-5.97-6.73-11.28
	c0.77-5.27,4.9-9.74,9.92-11.25c1.19-0.36,2.42-0.56,3.68-0.56c1.89,0,3.62,0.44,5.09,1.22c0.69,0.37,1.33,0.81,1.9,1.32
	C381.67,231.9,382.94,235.24,382.39,239z"/>
<path class="st12" d="M417.5,261.18c0.03-0.96-0.04-1.91-0.22-2.85l2.77-2.66l-2.71-4.86l-3.52,1.31c-0.68-0.62-1.44-1.14-2.24-1.57
	l0.31-3.56l-5.72-1.03l-1.89,3.27c-0.98,0.1-1.97,0.31-2.95,0.63L399,247.5l-5.38,3.4l0.84,3.31c-0.73,0.77-1.38,1.59-1.94,2.46
	l-3.6,0.2l-1.89,5.85l3.08,1.41c-0.03,0.97,0.04,1.92,0.22,2.85l-2.77,2.65l2.7,4.86l3.52-1.31c0.68,0.62,1.44,1.14,2.25,1.56
	l-0.32,3.56l5.72,1.03l1.89-3.27c0.98-0.11,1.97-0.31,2.96-0.63l2.32,2.37l5.38-3.4l-0.84-3.31c0.73-0.77,1.38-1.59,1.94-2.46
	l3.6-0.21l1.89-5.84L417.5,261.18z M404.65,270.97c-4.79,1.13-9.05-1.68-9.52-6.27c-0.46-4.6,3.04-9.24,7.83-10.37
	c4.79-1.13,9.05,1.68,9.52,6.28C412.94,265.2,409.44,269.84,404.65,270.97z"/>
<path class="st12" d="M404.65,270.97c-4.79,1.13-9.05-1.68-9.52-6.27c-0.46-4.6,3.04-9.24,7.83-10.37c4.79-1.13,9.05,1.68,9.52,6.28
	C412.94,265.2,409.44,269.84,404.65,270.97z"/>
<path class="st12" d="M380.6,276.33l2.36-1.46l-0.98-4.03l-2.63,0.36c-0.35-0.57-0.77-1.08-1.25-1.54l0.85-2.55l-3.71-1.74
	l-1.87,2.07c-0.5-0.07-1.02-0.1-1.54-0.08c-0.19,0-0.39,0.01-0.58,0.03l-1.16-2.14l-4.27,1.56l-0.02,2.56
	c-0.64,0.44-1.22,0.93-1.76,1.47l-1.52-0.29l-0.97-0.18l-2.33,3.95l1.85,1.56c-0.19,0.7-0.32,1.41-0.36,2.12l-2.36,1.46l0.97,4.03
	l1.4-0.19l1.23-0.17c0.36,0.57,0.78,1.08,1.25,1.53l-0.85,2.55l3.71,1.74l1.87-2.07c0.37,0.05,0.74,0.08,1.12,0.08
	c0.33,0.01,0.67-0.01,1.01-0.03l1.16,2.14l4.28-1.56l0.01-2.56c0.64-0.44,1.22-0.93,1.76-1.47l2.49,0.47l2.33-3.95l-1.85-1.56
	C380.44,277.75,380.56,277.04,380.6,276.33z M376.93,277.16c-0.5,3.45-3.72,6.24-7.19,6.24c-0.06,0-0.12,0-0.18,0
	c-3.36-0.1-5.67-2.85-5.18-6.23c0.49-3.36,3.57-6.1,6.94-6.23c0.08,0,0.16-0.01,0.24-0.01
	C375.03,270.92,377.43,273.71,376.93,277.16z"/>
<path class="st12" d="M376.93,277.16c-0.5,3.45-3.72,6.24-7.19,6.24c-0.06,0-0.12,0-0.18,0l0.02-0.15l1.72-12.15l0.02-0.16
	c0.08,0,0.16-0.01,0.24-0.01C375.03,270.92,377.43,273.71,376.93,277.16z"/>
<path class="st12" d="M371.32,270.93l-0.02,0.16l-1.72,12.15l-0.02,0.15c-3.36-0.1-5.67-2.85-5.18-6.23
	C364.87,273.79,367.95,271.05,371.32,270.93z"/>
<path class="st12" d="M523.32,378.79l-2.15,17.1l-0.43,3.44c-0.23,1.78-0.62,3.3-1.19,4.57c-0.51,1.16-1.18,2.11-1.99,2.84
	c-1.68,1.52-4.16,2.28-7.42,2.28c-1.88,0-3.33-0.15-4.33-0.46l0.54-4.31c1.63,0.12,2.79,0.17,3.46,0.17c1.29,0,2.31-0.17,3.06-0.51
	c0.3-0.13,0.56-0.3,0.77-0.49c0.75-0.67,1.25-2.03,1.51-4.08l0.43-3.44l2.15-17.1H523.32z"/>
<path class="st12" d="M542.9,401.77c-0.1,0.77-0.29,1.48-0.56,2.13c-0.59,1.39-1.59,2.49-3,3.31c-2.06,1.2-4.41,1.8-7.04,1.8
	c-2.28,0-4.23-0.45-5.87-1.36c-1.51-0.84-2.45-2.09-2.82-3.75c-0.03-0.13-0.06-0.27-0.08-0.4l4.83-0.89
	c0.14,0.51,0.36,0.94,0.66,1.3c0.75,0.92,2.01,1.38,3.77,1.38c2.22,0,3.71-0.46,4.46-1.38c0.31-0.37,0.49-0.82,0.56-1.34
	c0.07-0.58-0.11-1.06-0.55-1.44c-0.44-0.38-0.98-0.63-1.63-0.76l-3.96-0.76c-3.05-0.6-4.94-1.83-5.66-3.7
	c-0.32-0.82-0.41-1.76-0.27-2.82c0.24-1.95,1.16-3.6,2.76-4.96c1.6-1.36,3.81-2.04,6.63-2.04c4.7,0,7.36,1.71,7.98,5.12l-4.59,0.89
	c-0.26-1.66-1.49-2.49-3.7-2.49c-2.68,0-4.12,0.83-4.33,2.49c-0.14,1.15,0.84,1.94,2.95,2.38l4.66,0.98
	c0.56,0.12,1.06,0.26,1.52,0.44C542.18,396.89,543.27,398.84,542.9,401.77z"/>
<path class="st12" d="M524.09,272.37h-74.61c-5.81,0-11.25,4.69-12.16,10.47l-2.96,18.75c2.37-1.03,5.04-1.49,7.62-1.41
	c2.05,0.07,4.07,0.41,6.05,0.92c0-1.06,0.1-2.16,0.28-3.31c0.67-4.21,2.21-7.64,4.64-10.29c2.42-2.64,5.39-3.96,8.91-3.96
	c2.75,0,4.92,0.84,6.48,2.53c1.57,1.69,2.34,4.11,2.32,7.25l-4.72,0.48c-0.2-4.17-1.75-6.26-4.67-6.26c-1.87,0-3.47,0.87-4.78,2.61
	c-1.31,1.74-2.23,4.25-2.75,7.55c-0.32,2.01-0.39,3.72-0.21,5.14c1.32,0.48,2.63,0.99,3.94,1.48c1.6,0.61,3.24,1.2,4.89,1.71
	c1.15-1.13,1.91-2.46,2.29-4.01l4.56,0.51c-0.46,1.74-1.2,3.28-2.21,4.64c1.2,0.21,2.4,0.34,3.62,0.38
	c-0.37-0.76-0.61-1.62-0.73-2.59l5.03-1.03c0.08,1.4,0.64,2.45,1.7,3.13c2.37-0.26,4.73-0.31,6.45,0.79
	c0.84-0.17,1.57-0.46,2.18-0.86c1.07-0.7,1.68-1.58,1.85-2.62c0.12-0.75,0.01-1.46-0.32-2.1c-0.33-0.64-1.18-1.14-2.55-1.51
	l-5.09-1.38c-1.74-0.47-3-1.01-3.78-1.61c-0.77-0.6-1.33-1.45-1.68-2.54c-0.35-1.09-0.43-2.26-0.23-3.51
	c0.39-2.47,1.63-4.45,3.71-5.95c2.08-1.49,4.56-2.24,7.44-2.24c2.39,0,4.44,0.52,6.16,1.56c1.71,1.04,2.68,2.51,2.89,4.42
	l-4.95,1.17c-0.4-2.09-1.95-3.14-4.64-3.14c-1.56,0-2.8,0.33-3.72,0.97c-0.92,0.65-1.47,1.47-1.62,2.47
	c-0.25,1.58,0.86,2.69,3.34,3.32l4.54,1.17c2.75,0.72,4.5,1.77,5.26,3.17c0.75,1.4,1,2.94,0.73,4.63c-0.43,2.71-1.79,4.85-4.1,6.41
	c-1.01,0.69-2.12,1.22-3.33,1.61c0.16,1.97-0.81,4.11-2.37,5.44c-2.2,1.88-5.19,2.48-8.06,2.86c-6.63,0.88-13.38,0.9-20.02,0.05
	c0.8,1.26,1.74,2.44,2.76,3.55h58.61c5.81,0,11.25-4.69,12.16-10.47l4.72-29.93C533.86,277.06,529.89,272.37,524.09,272.37z
	 M505.84,294.33l4.54,1.17c2.75,0.72,4.5,1.77,5.26,3.17c0.75,1.4,1,2.94,0.73,4.63c-0.43,2.71-1.79,4.85-4.1,6.41
	s-5.09,2.34-8.36,2.34c-2.75,0-5.08-0.57-6.97-1.72c-1.89-1.15-2.98-2.94-3.27-5.37l5.03-1.03c0.15,2.74,2.17,4.11,6.07,4.11
	c1.78,0,3.2-0.35,4.27-1.05c1.07-0.7,1.68-1.58,1.85-2.62c0.12-0.75,0.01-1.46-0.32-2.1c-0.34-0.64-1.19-1.14-2.55-1.51l-5.09-1.38
	c-1.74-0.47-3-1.01-3.78-1.61c-0.77-0.6-1.33-1.45-1.68-2.54c-0.35-1.09-0.43-2.26-0.23-3.51c0.39-2.47,1.63-4.45,3.71-5.95
	c2.08-1.49,4.56-2.24,7.44-2.24c2.39,0,4.44,0.52,6.16,1.56c1.71,1.04,2.68,2.51,2.89,4.42l-4.95,1.17
	c-0.4-2.09-1.95-3.14-4.63-3.14c-1.56,0-2.81,0.33-3.73,0.97c-0.92,0.65-1.47,1.47-1.62,2.47
	C502.25,292.58,503.36,293.69,505.84,294.33z"/>
<path class="st12" d="M469.19,302.53c-0.46,1.74-1.2,3.28-2.21,4.64c-1.56-0.27-3.11-0.67-4.64-1.14c1.15-1.13,1.91-2.46,2.29-4.01
	L469.19,302.53z"/>
<path class="st12" d="M470.64,293.33l-4.72,0.48c-0.2-4.17-1.75-6.26-4.67-6.26c-1.87,0-3.47,0.87-4.78,2.61
	c-1.31,1.74-2.23,4.25-2.75,7.55c-0.32,2.01-0.39,3.72-0.21,5.14c-1.81-0.66-3.64-1.28-5.49-1.75c0-1.06,0.1-2.16,0.28-3.31
	c0.67-4.21,2.21-7.64,4.64-10.29c2.42-2.64,5.39-3.96,8.91-3.96c2.75,0,4.92,0.84,6.48,2.53
	C469.89,287.77,470.66,290.19,470.64,293.33z"/>
<path class="st12" d="M476.59,307.06c-1.19,0.12-2.38,0.3-3.49,0.41c-0.84,0.08-1.68,0.1-2.51,0.08c-0.37-0.76-0.61-1.62-0.73-2.59
	l5.03-1.03C474.97,305.33,475.54,306.38,476.59,307.06z"/>
<path class="st12" d="M491.82,298.67c0.75,1.4,1,2.94,0.73,4.63c-0.43,2.71-1.79,4.85-4.1,6.41c-1.01,0.69-2.12,1.22-3.33,1.61
	c-0.07-0.82-0.33-1.61-0.84-2.3c-0.36-0.49-0.78-0.88-1.25-1.18c0.84-0.17,1.57-0.46,2.18-0.86c1.07-0.7,1.68-1.58,1.85-2.62
	c0.12-0.75,0.01-1.46-0.32-2.1c-0.33-0.64-1.18-1.14-2.55-1.51l-5.09-1.38c-1.74-0.47-3-1.01-3.78-1.61
	c-0.77-0.6-1.33-1.45-1.68-2.54c-0.35-1.09-0.43-2.26-0.23-3.51c0.39-2.47,1.63-4.45,3.71-5.95c2.08-1.49,4.56-2.24,7.44-2.24
	c2.39,0,4.44,0.52,6.16,1.56c1.71,1.04,2.68,2.51,2.89,4.42l-4.95,1.17c-0.4-2.09-1.95-3.14-4.64-3.14c-1.56,0-2.8,0.33-3.72,0.97
	c-0.92,0.65-1.47,1.47-1.62,2.47c-0.25,1.58,0.86,2.69,3.34,3.32l4.54,1.17C489.31,296.22,491.07,297.27,491.82,298.67z"/>
<path class="st12" d="M515.64,298.67c0.75,1.4,1,2.94,0.73,4.63c-0.43,2.71-1.79,4.85-4.1,6.41s-5.09,2.34-8.36,2.34
	c-2.75,0-5.08-0.57-6.97-1.72c-1.89-1.15-2.98-2.94-3.27-5.37l5.03-1.03c0.15,2.74,2.17,4.11,6.07,4.11c1.78,0,3.2-0.35,4.27-1.05
	c1.07-0.7,1.68-1.58,1.85-2.62c0.12-0.75,0.01-1.46-0.32-2.1c-0.34-0.64-1.19-1.14-2.55-1.51l-5.09-1.38
	c-1.74-0.47-3-1.01-3.78-1.61c-0.77-0.6-1.33-1.45-1.68-2.54c-0.35-1.09-0.43-2.26-0.23-3.51c0.39-2.47,1.63-4.45,3.71-5.95
	c2.08-1.49,4.56-2.24,7.44-2.24c2.39,0,4.44,0.52,6.16,1.56c1.71,1.04,2.68,2.51,2.89,4.42l-4.95,1.17
	c-0.4-2.09-1.95-3.14-4.63-3.14c-1.56,0-2.81,0.33-3.73,0.97c-0.92,0.65-1.47,1.47-1.62,2.47c-0.25,1.58,0.86,2.69,3.34,3.32
	l4.54,1.17C513.13,296.22,514.88,297.27,515.64,298.67z"/>
<path class="st12" d="M580.27,145.93H443.63c-8.26,0-15.75,6.66-16.73,14.88l-4.96,41.65c-0.17,1.41-0.13,2.77,0.08,4.06
	c0.5,3,1.96,5.62,4.11,7.52c2.32,2.07,5.44,3.3,9,3.3h136.64c3.56,0,6.97-1.23,9.79-3.3c2.6-1.9,4.69-4.52,5.9-7.52
	c0.52-1.29,0.88-2.65,1.05-4.06l4.96-41.65C594.44,152.59,588.53,145.93,580.27,145.93z M465.43,201.3h-7.13l2.03-17.08h-15.09
	l-2.03,17.08h-7.13l4.68-39.33h7.13l-1.92,16.16h15.09l1.93-16.16h7.12L465.43,201.3z M491.89,168.05l-3.96,33.25h-7.65l3.96-33.25
	h-10.52l0.73-6.08h28.68l-0.73,6.08H491.89z M541.58,201.3h-7.27l4.1-34.43l-15.05,34.43h-3.74l-6.91-34.43l-4.1,34.43h-5.82
	l4.68-39.33h11.15l5.27,25.33l11.15-25.33h11.21L541.58,201.3z M574.64,201.3H550.3l4.68-39.33h7.5l-3.92,32.9h16.83L574.64,201.3z"
	/>
<polygon class="st12" points="470.11,161.97 465.43,201.3 458.3,201.3 460.34,184.21 445.24,184.21 443.21,201.3 436.08,201.3 
	440.76,161.97 447.89,161.97 445.97,178.13 461.06,178.13 462.98,161.97 "/>
<polygon class="st12" points="503.13,161.97 502.41,168.05 491.89,168.05 487.94,201.3 480.29,201.3 484.25,168.05 473.73,168.05 
	474.45,161.97 "/>
<polygon class="st12" points="546.26,161.97 541.58,201.3 534.31,201.3 538.41,166.87 523.36,201.3 519.63,201.3 512.72,166.87 
	508.62,201.3 502.8,201.3 507.48,161.97 518.63,161.97 523.9,187.29 535.05,161.97 "/>
<polygon class="st12" points="575.4,194.87 574.64,201.3 550.3,201.3 554.98,161.97 562.49,161.97 558.57,194.87 "/>
<path class="st12" d="M504.75,426.4l-1.82,31.6h-57.26l8.31-54.1h37.67l-1.59,12.6c-0.69,5.46,3.24,9.89,8.76,9.89H504.75z"/>
<path class="st12" d="M139.83,216.62c0,0,5.93-8.67,14.75,2.7"/>
<path class="st13" d="M207.45,188.68c4.3,4.1,7.98,8.59,10.94,13.35c-1.82,2.07-3.65,4.15-5.47,6.22"/>
<path class="st14" d="M205.18,222.95c3.65,1.77,8.07,1.85,11.78,0.23c3.71-1.62,6.65-4.93,7.83-8.81"/>
<g>
	<g>
		<path class="st8" d="M189.77,195.12c1.38,0,1.38-2.14,0-2.14C188.39,192.98,188.39,195.12,189.77,195.12L189.77,195.12z"/>
	</g>
</g>
<g>
	<g>
		<path class="st8" d="M219.26,184.64c1.38,0,1.38-2.14,0-2.14C217.89,182.5,217.88,184.64,219.26,184.64L219.26,184.64z"/>
	</g>
</g>
<circle class="st15" cx="183.66" cy="211.86" r="6.81"/>
<ellipse transform="matrix(0.9649 -0.2627 0.2627 0.9649 -43.9015 55.8304)" class="st14" cx="186.84" cy="192.1" rx="17.27" ry="22.47"/>
<ellipse transform="matrix(0.9649 -0.2627 0.2627 0.9649 -39.5015 65.0171)" class="st12" cx="223.4" cy="180.23" rx="12.78" ry="20.63"/>
<path class="st14" d="M200.19,179.94c0,0,3.09-8.93,9.76-3.29"/>
</svg>
